<?xml version="1.0" encoding="UTF-8" standalone="no"?>
<!DOCTYPE svg PUBLIC "-//W3C//DTD SVG 1.1//EN" "http://www.w3.org/Graphics/SVG/1.1/DTD/svg11.dtd">
<svg width="100%" height="100%" viewBox="0 0 61 61" version="1.1" xmlns="http://www.w3.org/2000/svg" xmlns:xlink="http://www.w3.org/1999/xlink" xml:space="preserve" xmlns:serif="http://www.serif.com/" style="fill-rule:evenodd;clip-rule:evenodd;stroke-linejoin:round;stroke-miterlimit:2;">
    <g transform="matrix(1,0,0,1,-8134,-7667)">
        <g id="icon-github" transform="matrix(1,0,0,1,-0.800233,1633.38)">
            <rect x="8134.8" y="6034.23" width="60.006" height="60.026" style="fill:none;"/>
            <clipPath id="_clip1">
                <rect x="8134.8" y="6034.23" width="60.006" height="60.026"/>
            </clipPath>
            <g clip-path="url(#_clip1)">
                <g id="icon-github1" serif:id="icon-github" transform="matrix(0.161394,0,0,0.165539,8123.49,6022.53)">
                    <path d="M256,70.7C153.4,70.7 70.1,153.9 70.1,256.6C70.1,338.7 123.4,408.4 197.2,433C206.5,434.7 209.5,429 209.5,424.1L209.5,389.4C157.8,400.7 147,367.5 147,367.5C138.6,346 126.4,340.3 126.4,340.3C109.5,328.8 127.7,329 127.7,329C146.4,330.3 156.2,348.2 156.2,348.2C172.8,376.6 199.7,368.4 210.3,363.6C212,351.6 216.8,343.4 222.1,338.7C180.8,334 137.4,318.1 137.4,246.8C137.4,226.5 144.7,209.9 156.6,196.9C154.7,192.2 148.3,173.3 158.4,147.7C158.4,147.7 174,142.7 209.5,166.8C224.3,162.7 240.2,160.6 256,160.5C271.8,160.6 287.7,162.6 302.6,166.8C338.1,142.8 353.7,147.7 353.7,147.7C363.8,173.3 357.5,192.2 355.5,196.9C367.4,209.9 374.6,226.5 374.6,246.8C374.6,318.2 331.1,333.9 289.7,338.5C296.4,344.3 302.5,355.6 302.5,372.9L302.5,423.9C302.5,428.8 305.5,434.6 314.9,432.8C388.7,408.2 441.9,338.5 441.9,256.4C441.9,153.9 358.6,70.7 256,70.7Z" style="fill-rule:nonzero;"/>
                </g>
            </g>
        </g>
    </g>
</svg>
