<?xml version="1.0" encoding="UTF-8" standalone="no"?>
<!DOCTYPE svg PUBLIC "-//W3C//DTD SVG 1.1//EN" "http://www.w3.org/Graphics/SVG/1.1/DTD/svg11.dtd">
<svg width="100%" height="100%" viewBox="0 0 60 60" version="1.1" xmlns="http://www.w3.org/2000/svg" xmlns:xlink="http://www.w3.org/1999/xlink" xml:space="preserve" xmlns:serif="http://www.serif.com/" style="fill-rule:evenodd;clip-rule:evenodd;stroke-linejoin:round;stroke-miterlimit:2;">
    <g transform="matrix(1,0,0,1,-8008,-6139)">
        <g transform="matrix(1.1788,0,0,0.997769,-1431.85,13.2115)">
            <rect id="icon-stackoverflow" x="8008.02" y="6139.48" width="50.899" height="60.134" style="fill:none;"/>
            <g id="icon-stackoverflow1" serif:id="icon-stackoverflow">
                <g id="icon-stackoverflow2" serif:id="icon-stackoverflow" transform="matrix(14.4769,0,0,25.1862,16218.9,1130.32)">
                    <g transform="matrix(0.125567,0,0,0.0852708,-566.9,198.885)">
                        <path d="M20,25.5L20,18L22.5,18L22.5,28L0,28L0,18L2.5,18L2.5,25.5" style="fill-rule:nonzero;"/>
                    </g>
                    <g transform="matrix(0.125567,0,0,0.0852708,-566.9,198.885)">
                        <path d="M5.2,17.3L17.4,19.9L17.9,17.5L5.8,14.9L5.2,17.3ZM6.9,11.5L18.2,16.8L19.3,14.5L7.9,9.2L6.9,11.5ZM10,5.9L19.6,13.9L21.2,12L11.6,4L10,5.9ZM16.2,0L14.2,1.5L21.7,11.5L23.7,10L16.2,0ZM5,23L17.5,23L17.5,20.5L5,20.5L5,23Z" style="fill-rule:nonzero;"/>
                    </g>
                </g>
            </g>
        </g>
    </g>
</svg>
