<?xml version="1.0" encoding="UTF-8" standalone="no"?>
<!DOCTYPE svg PUBLIC "-//W3C//DTD SVG 1.1//EN" "http://www.w3.org/Graphics/SVG/1.1/DTD/svg11.dtd">
<svg width="100%" height="100%" viewBox="0 0 33 33" version="1.1" xmlns="http://www.w3.org/2000/svg" xmlns:xlink="http://www.w3.org/1999/xlink" xml:space="preserve" xmlns:serif="http://www.serif.com/" style="fill-rule:evenodd;clip-rule:evenodd;stroke-linejoin:round;stroke-miterlimit:2;">
    <g transform="matrix(1,0,0,1,-8075,-2920)">
        <g id="icon-arrow-down" transform="matrix(1,0,0,1.67684,273.191,59.0348)">
            <rect x="7802.7" y="1706.58" width="32.032" height="19.084" style="fill:none;"/>
            <clipPath id="_clip1">
                <rect x="7802.7" y="1706.58" width="32.032" height="19.084"/>
            </clipPath>
            <g clip-path="url(#_clip1)">
                <g id="icon-shevron-down" transform="matrix(3.05716,-3.90609e-32,-6.5774e-32,1.82317,-3401.02,-7790.12)">
                    <g id="icon-shevron-down1" serif:id="icon-shevron-down">
                        <path id="icon-shevron-down2" serif:id="icon-shevron-down" d="M3669.98,5214.82L3673.52,5211.29C3673.91,5210.9 3674.54,5210.9 3674.93,5211.29C3675.32,5211.68 3675.32,5212.31 3674.93,5212.7L3670.76,5216.87C3670.74,5216.9 3670.72,5216.92 3670.7,5216.95C3670.5,5217.14 3670.24,5217.24 3669.98,5217.24C3669.73,5217.24 3669.47,5217.14 3669.27,5216.95C3669.25,5216.92 3669.23,5216.9 3669.21,5216.87L3665.04,5212.7C3664.65,5212.31 3664.65,5211.68 3665.04,5211.29C3665.43,5210.9 3666.06,5210.9 3666.45,5211.29L3669.98,5214.82Z" style="fill:white;"/>
                    </g>
                </g>
            </g>
        </g>
    </g>
</svg>
