<svg width="100%" height="100%" viewBox="0 0 774 1025" aria-hidden="true">
    <g transform="matrix(1,0,0,1,-14193,-1633)">
        <g transform="matrix(2.07788,0,0,2.96674,-8331,1069.2)">
            <g transform="matrix(0.481259,0,0,0.33707,4009.37,-360.395)">
                <path
                    d="M14646.7,1885.3L14885.8,1885.3C14930.4,1885.3 14966.7,1921.54 14966.7,1966.17L14966.7,2576.59C14966.7,2621.23 14930.4,2657.47 14885.8,2657.47L14274.5,2657.47C14229.9,2657.47 14193.7,2621.23 14193.7,2576.59L14193.7,1966.17C14193.7,1921.54 14229.9,1885.3 14274.5,1885.3L14444.1,1885.3L14399.6,1750.1C14395.3,1737.17 14402.4,1723.22 14415.3,1718.97C14428.3,1714.72 14442.2,1721.77 14446.5,1734.7L14496,1885.3L14595.7,1885.3L14656.8,1657.29C14660.3,1644.14 14673.9,1636.33 14687,1639.85C14700.2,1643.37 14708,1656.9 14704.5,1670.05L14646.7,1885.3ZM14599.8,2550.22L14689.7,2550.22L14689.7,2482.28L14599.8,2482.28L14599.8,2550.22ZM14689.7,2402L14599.8,2402L14599.8,2469.94L14689.7,2469.94L14689.7,2402ZM14363.5,2482.28C14366.7,2520.3 14398.6,2550.22 14437.4,2550.22L14475.7,2550.22L14475.7,2482.28L14363.5,2482.28ZM14461.8,2049.97C14397.4,2049.97 14345.2,2102.17 14345.2,2166.47C14345.2,2230.76 14397.4,2282.97 14461.8,2282.97C14526.2,2282.97 14578.4,2230.76 14578.4,2166.47C14578.4,2102.17 14526.2,2049.97 14461.8,2049.97ZM14440.5,2097.85C14473,2097.85 14499.4,2124.25 14499.4,2156.77C14499.4,2189.3 14473,2215.7 14440.5,2215.7C14407.9,2215.7 14381.5,2189.3 14381.5,2156.77C14381.5,2124.25 14407.9,2097.85 14440.5,2097.85ZM14491.8,2550.22L14583.7,2550.22L14583.7,2482.28L14491.8,2482.28L14491.8,2550.22ZM14755.4,2049.97C14691.1,2049.97 14638.8,2102.17 14638.8,2166.47C14638.8,2230.76 14691.1,2282.97 14755.4,2282.97C14819.8,2282.97 14872.1,2230.76 14872.1,2166.47C14872.1,2102.17 14819.8,2049.97 14755.4,2049.97ZM14761.2,2156.77C14793.8,2156.77 14820.2,2183.18 14820.2,2215.7C14820.2,2248.22 14793.8,2274.63 14761.2,2274.63C14728.7,2274.63 14702.2,2248.22 14702.2,2215.7C14702.2,2183.18 14728.7,2156.77 14761.2,2156.77ZM14475.7,2402L14437.4,2402C14398.6,2402 14366.7,2431.92 14363.5,2469.94L14475.7,2469.94L14475.7,2402ZM14820,2469.94C14816.8,2431.92 14784.9,2402 14746.1,2402L14705.8,2402L14705.8,2469.94L14820,2469.94ZM14583.7,2402L14491.8,2402L14491.8,2469.94L14583.7,2469.94L14583.7,2402ZM14705.8,2550.22L14746.1,2550.22C14784.9,2550.22 14816.8,2520.3 14820,2482.28L14705.8,2482.28L14705.8,2550.22Z"
                    style="fill:currentColor;"></path>
            </g>
        </g>
    </g>
</svg>