<?xml version="1.0" encoding="UTF-8" standalone="no"?>
<!DOCTYPE svg PUBLIC "-//W3C//DTD SVG 1.1//EN" "http://www.w3.org/Graphics/SVG/1.1/DTD/svg11.dtd">
<svg width="100%" height="100%" viewBox="0 0 147 101" version="1.1" xmlns="http://www.w3.org/2000/svg" xmlns:xlink="http://www.w3.org/1999/xlink" xml:space="preserve" xmlns:serif="http://www.serif.com/" style="fill-rule:evenodd;clip-rule:evenodd;stroke-linejoin:round;stroke-miterlimit:2;">
    <g transform="matrix(1,0,0,1,-11018,-2285)">
        <g transform="matrix(0.366299,0,0,0.625,8023.07,-723.763)">
            <rect id="logo-adb" x="8176.21" y="4814.05" width="400" height="160" style="fill:none;"/>
            <clipPath id="_clip1">
                <rect id="logo-adb1" serif:id="logo-adb" x="8176.21" y="4814.05" width="400" height="160"/>
            </clipPath>
            <g clip-path="url(#_clip1)">
                <g>
                    <g transform="matrix(0.939548,0,0,0.550649,8317.22,4866.01)">
                        <path d="M0,-58.118L24.925,-7.639L-22.098,-7.639L0,-58.118ZM-19.756,29.834C-27.146,29.834 -35.27,30.395 -36.927,23.632C-37.321,22.026 -33.742,15.426 -32.109,11.932L-25.958,0.565L28.652,0.565C28.652,0.565 39.134,18.759 38.985,23.572C38.849,28.059 35.267,28.978 30.055,29.834C28.11,30.142 30.343,29.785 23.962,29.845L23.989,36.239L70.065,36.239C69.428,36.064 68.873,35.892 68.452,35.726C68.452,35.726 30.742,19.981 46.435,-29.491C43.52,-35.368 24.552,-73.555 20.115,-81.119C17.554,-85.483 11.227,-94.357 11.227,-94.357L-10.26,-72.643L-8.747,-71.405C-8.747,-71.405 -5.449,-68.793 -6.136,-66.043C-6.993,-62.62 -8.198,-60.044 -12.388,-49.423L-41.574,12.54C-45.23,20.254 -50.064,23.616 -52.98,26.187C-55.895,28.758 -58.566,30.487 -64.086,30.67L-64.086,36.239L-19.756,36.239L-19.756,29.834Z" style="fill:rgb(30,28,26);fill-rule:nonzero;"/>
                    </g>
                    <g transform="matrix(0.939548,0,0,0.550649,8136.26,4868.27)">
                        <rect x="141.271" y="104.129" width="3.259" height="26.373" style="fill:rgb(30,28,26);"/>
                    </g>
                    <g transform="matrix(0.939548,0,0,0.550649,8575.16,4940.09)">
                        <path d="M0,-26.839C-0.433,-26.89 -0.819,-26.917 -1.166,-26.917C-2.717,-26.917 -4.07,-26.383 -5.224,-25.313C-6.377,-24.245 -7.286,-22.882 -7.941,-21.227L-8.042,-21.227L-8.042,-26.295L-11.301,-26.295C-11.195,-25.399 -11.137,-24.598 -11.118,-23.892C-11.102,-23.184 -11.09,-22.021 -11.09,-20.401L-11.09,0.078L-7.835,0.078L-7.835,-12.954C-7.835,-14.264 -7.73,-15.53 -7.523,-16.754C-7.317,-17.979 -6.954,-19.099 -6.44,-20.116C-5.921,-21.132 -5.239,-21.951 -4.397,-22.573C-3.551,-23.192 -2.507,-23.502 -1.267,-23.502C-0.339,-23.502 0.456,-23.401 1.111,-23.192L1.111,-26.605C0.803,-26.708 0.429,-26.786 0,-26.839" style="fill:rgb(30,28,26);fill-rule:nonzero;"/>
                    </g>
                    <g transform="matrix(0.939548,0,0,0.550649,8225.95,4928.49)">
                        <path d="M0,4.052C0.277,2.779 0.717,1.602 1.321,0.518C1.925,-0.566 2.736,-1.435 3.75,-2.088C4.767,-2.741 5.983,-3.068 7.398,-3.068C8.88,-3.068 10.127,-2.75 11.145,-2.113C12.162,-1.478 12.973,-0.634 13.577,0.415C14.181,1.463 14.602,2.625 14.844,3.896C15.086,5.169 15.207,6.512 15.207,7.921C15.207,9.332 15.086,10.673 14.844,11.946C14.602,13.219 14.181,14.38 13.577,15.429C12.973,16.477 12.162,17.319 11.145,17.957C10.127,18.592 8.88,18.91 7.398,18.91C6.019,18.91 4.83,18.584 3.828,17.929C2.83,17.276 2.019,16.409 1.399,15.325C0.78,14.242 0.324,13.055 0.027,11.764C-0.265,10.474 -0.409,9.194 -0.409,7.921C-0.409,6.615 -0.273,5.324 0,4.052M7.913,21.703C11.394,21.703 14.076,20.428 15.955,17.876C17.834,15.325 18.773,12.016 18.773,7.946C18.773,3.707 17.928,0.397 16.24,-1.983C15.343,-3.222 14.205,-4.179 12.829,-4.852C11.449,-5.524 9.812,-5.861 7.913,-5.861C6.709,-5.861 5.613,-5.67 4.631,-5.292C3.649,-4.912 2.811,-4.446 2.124,-3.895C1.435,-3.345 0.889,-2.791 0.491,-2.24C0.097,-1.688 -0.168,-1.207 -0.308,-0.792L-0.409,-0.792L-0.409,-17.651L-3.668,-17.651L-3.668,21.134L-0.409,21.134L-0.409,16.945L-0.308,16.945C1.38,20.116 4.124,21.703 7.913,21.703" style="fill:rgb(30,28,26);fill-rule:nonzero;"/>
                    </g>
                    <g transform="matrix(0.939548,0,0,0.550649,8194,4951.74)">
                        <path d="M0,22.699C-0.585,23.615 -1.368,24.338 -2.351,24.872C-3.333,25.408 -4.421,25.779 -5.609,25.985C-6.799,26.192 -8.05,26.295 -9.36,26.295L-13.082,26.295L-13.082,12.178L-9.925,12.178C-8.377,12.178 -6.989,12.254 -5.766,12.41C-4.541,12.564 -3.43,12.883 -2.429,13.367C-1.431,13.85 -0.628,14.574 -0.023,15.538C0.581,16.505 0.881,17.744 0.881,19.261C0.881,20.641 0.585,21.787 0,22.699M-13.082,-3.596L-8.171,-3.596C-7.274,-3.596 -6.377,-3.518 -5.481,-3.362C-4.584,-3.208 -3.746,-2.931 -2.971,-2.536C-2.199,-2.14 -1.56,-1.536 -1.061,-0.725C-0.562,0.086 -0.308,1.111 -0.308,2.351C-0.308,3.696 -0.577,4.826 -1.111,5.738C-1.645,6.652 -2.343,7.35 -3.205,7.833C-4.066,8.315 -4.998,8.642 -5.996,8.816C-6.997,8.989 -8.03,9.073 -9.098,9.073L-13.082,9.073L-13.082,-3.596ZM-3.255,10.521L-3.255,10.418C1.087,9.558 3.259,6.816 3.259,2.197C3.259,0.542 2.959,-0.873 2.354,-2.044C1.75,-3.216 0.924,-4.14 -0.129,-4.81C-1.177,-5.482 -2.386,-5.966 -3.746,-6.258C-5.11,-6.553 -6.565,-6.699 -8.116,-6.699L-16.7,-6.699L-16.7,29.398L-9.511,29.398C-7.512,29.398 -5.68,29.225 -4.007,28.881C-2.335,28.535 -0.869,27.967 0.39,27.174C1.649,26.381 2.639,25.313 3.364,23.968C4.085,22.623 4.448,21.003 4.448,19.107C4.448,16.797 3.758,14.891 2.382,13.392C1.002,11.894 -0.877,10.934 -3.255,10.521" style="fill:rgb(30,28,26);fill-rule:nonzero;"/>
                    </g>
                    <g transform="matrix(0.939548,0,0,0.550649,8136.26,4935.97)">
                        <rect x="459.29" y="53.646" width="4.186" height="4.395" style="fill:rgb(30,28,26);"/>
                    </g>
                    <g transform="matrix(0.939548,0,0,0.550649,8545.01,4935.68)">
                        <path d="M0,-10.241C0.363,-11.325 0.881,-12.317 1.552,-13.213C2.226,-14.11 3.044,-14.817 4.007,-15.334C4.974,-15.85 6.042,-16.109 7.215,-16.109C8.389,-16.109 9.403,-15.86 10.268,-15.359C11.125,-14.86 11.827,-14.178 12.361,-13.316C12.895,-12.455 13.293,-11.481 13.55,-10.395C13.807,-9.309 13.936,-8.163 13.936,-6.955L-0.542,-6.955C-0.542,-8.06 -0.358,-9.153 0,-10.241M7.886,8.661C9.161,8.661 10.482,8.539 11.843,8.293C13.207,8.047 14.439,7.695 15.542,7.238L15.542,3.903C14.747,4.42 13.601,4.878 12.104,5.274C10.603,5.669 9.286,5.868 8.147,5.868C5.423,5.868 3.294,4.927 1.758,3.038C0.226,1.154 -0.542,-1.248 -0.542,-4.164L17.507,-4.164L17.507,-5.819C17.507,-7.645 17.3,-9.344 16.887,-10.913C16.47,-12.48 15.842,-13.868 14.996,-15.074C14.154,-16.281 13.059,-17.22 11.714,-17.893C10.369,-18.565 8.802,-18.902 7.009,-18.902C5.387,-18.902 3.89,-18.565 2.51,-17.893C1.13,-17.22 -0.051,-16.264 -1.033,-15.024C-2.015,-13.782 -2.775,-12.317 -3.31,-10.627C-3.844,-8.939 -4.109,-7.095 -4.109,-5.095C-4.109,-3.061 -3.886,-1.207 -3.438,0.465C-2.99,2.138 -2.292,3.594 -1.345,4.835C-0.393,6.077 0.846,7.024 2.378,7.679C3.914,8.334 5.75,8.661 7.886,8.661" style="fill:rgb(30,28,26);fill-rule:nonzero;"/>
                    </g>
                    <g transform="matrix(0.939548,0,0,0.550649,8184.37,4927.29)">
                        <path d="M0,10.551L7.863,-9.359L15.671,10.551L0,10.551ZM10.135,-12.772L6.105,-12.772L-8.685,23.323L-5.224,23.323L-1.345,13.654L16.859,13.654L20.738,23.323L24.461,23.323L10.135,-12.772Z" style="fill:rgb(30,28,26);fill-rule:nonzero;"/>
                    </g>
                    <g transform="matrix(0.939548,0,0,0.550649,8218.49,4940.13)">
                        <path d="M0,-26.995C-1.551,-26.995 -2.904,-26.461 -4.062,-25.391C-5.215,-24.323 -6.12,-22.961 -6.775,-21.306L-6.876,-21.306L-6.876,-26.373L-10.135,-26.373C-10.034,-25.477 -9.971,-24.676 -9.956,-23.97C-9.936,-23.263 -9.929,-22.099 -9.929,-20.479L-9.929,0L-6.67,0L-6.67,-13.032C-6.67,-14.342 -6.568,-15.609 -6.362,-16.833C-6.155,-18.057 -5.793,-19.177 -5.274,-20.195C-4.76,-21.21 -4.077,-22.029 -3.232,-22.651C-2.389,-23.27 -1.345,-23.58 -0.105,-23.58C0.826,-23.58 1.618,-23.479 2.277,-23.27L2.277,-26.683C1.965,-26.787 1.594,-26.864 1.162,-26.917C0.733,-26.968 0.343,-26.995 0,-26.995" style="fill:rgb(30,28,26);fill-rule:nonzero;"/>
                    </g>
                    <g transform="matrix(0.939548,0,0,0.550649,8136.26,4935.97)">
                        <rect x="426.436" y="53.646" width="4.191" height="4.395" style="fill:rgb(30,28,26);"/>
                    </g>
                    <g transform="matrix(0.939548,0,0,0.550649,8136.26,4899.21)">
                        <rect x="73.532" y="87.053" width="3.259" height="4.344" style="fill:rgb(30,28,26);"/>
                    </g>
                    <g transform="matrix(0.939548,0,0,0.550649,8136.26,4917.03)">
                        <rect x="85.09" y="53.646" width="3.259" height="38.785" style="fill:rgb(30,28,26);"/>
                    </g>
                    <g transform="matrix(0.939548,0,0,0.550649,8497.92,4879.98)">
                        <path d="M0,-105.419C0,-111.545 10.014,-109.263 12.876,-109.389C29.345,-110.124 42.72,-108.003 43.164,-86.862C43.367,-77.214 38.728,-60.631 24.601,-60.688L0,-60.688L0,-105.419ZM50.668,-21.878C50.668,-0.915 36.358,5.32 17.518,5.32C12.716,5.32 0.16,3.934 0.214,-3.821L0.214,-52.248L22.598,-52.248C43.164,-52.24 50.668,-34.622 50.668,-21.878M-41.967,4.523L-41.952,10.83L41.948,10.83C58.846,10.883 79.07,-1.348 79.07,-22.359C79.07,-43.058 63.937,-50.695 42.688,-56.696C58.554,-59.674 70.946,-71.673 70.946,-86.632C70.946,-106.949 49.124,-116.302 29.591,-116.129L-41.231,-116.129L-41.231,-109.641C-29.439,-109.165 -25.825,-111.342 -25.825,-98.915L-25.825,-6.385C-25.829,5.08 -32.183,4.523 -41.967,4.523" style="fill:rgb(30,28,26);fill-rule:nonzero;"/>
                    </g>
                    <g transform="matrix(0.939548,0,0,0.550649,8136.26,4923.87)">
                        <rect x="73.532" y="53.646" width="3.259" height="26.373" style="fill:rgb(30,28,26);"/>
                    </g>
                    <g transform="matrix(0.939548,0,0,0.550649,8409.68,4885.97)">
                        <path d="M0,-0.22C-0.203,-0.149 -0.406,-0.068 -0.608,0L0,0L0,-0.22Z" style="fill:rgb(30,28,26);fill-rule:nonzero;"/>
                    </g>
                    <g transform="matrix(0.939548,0,0,0.550649,8560.49,4950.03)">
                        <path d="M0,28.908L-11.636,-3.594L-15.409,-3.594L-1.964,32.502L1.86,32.502L15.566,-3.594L12.049,-3.594L0,28.908Z" style="fill:rgb(30,28,26);fill-rule:nonzero;"/>
                    </g>
                    <g transform="matrix(0.939548,0,0,0.550649,8449.67,4928.33)">
                        <path d="M0,17.076C-0.998,15.647 -1.501,13.644 -1.501,11.063L-1.501,-4.933L-4.756,-4.933L-4.756,11.925C-4.756,15.028 -4.034,17.484 -2.584,19.294C-1.138,21.105 1.139,22.009 4.241,22.009C5.551,22.009 6.689,21.863 7.652,21.569C8.619,21.276 9.43,20.871 10.085,20.354C10.74,19.838 11.266,19.286 11.663,18.7C12.057,18.113 12.428,17.458 12.774,16.735L12.876,16.735L12.876,21.44L16.029,21.44C15.893,20.027 15.823,17.959 15.823,15.234L15.823,-4.933L12.568,-4.933L12.568,9.619C12.568,10.788 12.428,11.932 12.151,13.051C11.878,14.168 11.437,15.191 10.833,16.121C10.229,17.051 9.422,17.799 8.404,18.365C7.387,18.933 6.171,19.216 4.756,19.216C2.585,19.216 1.002,18.503 0,17.076" style="fill:rgb(30,28,26);fill-rule:nonzero;"/>
                    </g>
                    <g transform="matrix(0.939548,0,0,0.550649,8136.26,4804.79)">
                        <rect x="343.097" y="163.689" width="124.975" height="22.541" style="fill:rgb(30,28,26);"/>
                    </g>
                    <g transform="matrix(-0.939548,0,0,0.550649,8593.85,4843.61)">
                        <rect x="241.885" y="137.537" width="3.259" height="4.344" style="fill:rgb(30,28,26);"/>
                    </g>
                    <g transform="matrix(0.939548,0,0,0.550649,8307.18,4940.13)">
                        <path d="M0,-38.785L0,0L3.259,0L3.259,-13.549L16.29,0L20.789,0L6.362,-14.687L19.237,-26.374L15.047,-26.374L3.259,-15.566L3.259,-38.785L0,-38.785Z" style="fill:rgb(30,28,26);fill-rule:nonzero;"/>
                    </g>
                    <g transform="matrix(-0.939548,0,0,0.550649,8507.66,4804.79)">
                        <rect x="94.45" y="163.689" width="206.399" height="22.541" style="fill:rgb(30,28,26);"/>
                    </g>
                    <g transform="matrix(0.939548,0,0,0.550649,8136.26,4868.27)">
                        <rect x="241.886" y="104.129" width="3.259" height="26.373" style="fill:rgb(30,28,26);"/>
                    </g>
                    <g transform="matrix(0.939548,0,0,0.550649,8448.08,4961.67)">
                        <path d="M0,-3.672C0,-4.775 0.183,-5.871 0.546,-6.956C0.905,-8.042 1.423,-9.032 2.097,-9.931C2.768,-10.825 3.587,-11.532 4.553,-12.049C5.516,-12.568 6.584,-12.825 7.758,-12.825C8.931,-12.825 9.948,-12.576 10.81,-12.077C11.671,-11.576 12.369,-10.896 12.903,-10.034C13.437,-9.17 13.835,-8.198 14.092,-7.112C14.353,-6.024 14.482,-4.878 14.482,-3.672L0,-3.672ZM15.542,-11.792C14.696,-12.996 13.601,-13.938 12.256,-14.61C10.911,-15.281 9.344,-15.618 7.551,-15.618C5.929,-15.618 4.432,-15.281 3.052,-14.61C1.673,-13.938 0.491,-12.981 -0.491,-11.739C-1.473,-10.497 -2.23,-9.032 -2.764,-7.344C-3.301,-5.654 -3.567,-3.811 -3.567,-1.811C-3.567,0.224 -3.34,2.078 -2.892,3.75C-2.448,5.42 -1.746,6.876 -0.799,8.12C0.148,9.36 1.388,10.307 2.924,10.962C4.456,11.619 6.292,11.946 8.432,11.946C9.707,11.946 11.024,11.823 12.385,11.576C13.749,11.33 14.981,10.979 16.084,10.523L16.084,7.188C15.289,7.705 14.143,8.161 12.646,8.559C11.145,8.954 9.827,9.153 8.689,9.153C5.964,9.153 3.836,8.21 2.304,6.323C0.768,4.436 0,2.035 0,-0.879L18.048,-0.879L18.048,-2.533C18.048,-4.362 17.842,-6.059 17.429,-7.629C17.015,-9.196 16.384,-10.585 15.542,-11.792" style="fill:rgb(30,28,26);fill-rule:nonzero;"/>
                    </g>
                    <g transform="matrix(-0.939548,0,0,0.550649,8404.78,4843.61)">
                        <rect x="141.27" y="137.537" width="3.259" height="4.344" style="fill:rgb(30,28,26);"/>
                    </g>
                    <g transform="matrix(-0.939548,0,0,0.550649,8651.34,4902.08)">
                        <rect x="272.17" y="84.416" width="3.879" height="4.395" style="fill:rgb(30,28,26);"/>
                    </g>
                    <g transform="matrix(0.939548,0,0,0.550649,8403.59,4959.82)">
                        <path d="M0,3.036C0,4.101 -0.062,5.112 -0.183,6.073C-0.304,7.034 -0.612,8.012 -1.111,9.007C-1.614,10.002 -2.405,10.835 -3.493,11.503C-4.577,12.172 -6.015,12.507 -7.808,12.507C-9.43,12.507 -10.747,12.121 -11.765,11.349C-12.782,10.577 -13.289,9.385 -13.289,7.771C-13.289,6.398 -12.938,5.284 -12.229,4.426C-11.523,3.568 -10.576,2.925 -9.387,2.496C-8.198,2.066 -6.911,1.783 -5.535,1.647C-4.155,1.51 -2.62,1.44 -0.932,1.44L0,1.44L0,3.036ZM3.255,9.197L3.255,-2.438C3.255,-5.887 2.534,-8.385 1.084,-9.937C-0.363,-11.488 -2.725,-12.264 -5.999,-12.264C-7.138,-12.264 -8.463,-12.082 -9.983,-11.72C-11.499,-11.36 -12.755,-10.936 -13.757,-10.453L-13.757,-7.3C-11.48,-8.748 -8.896,-9.471 -5.999,-9.471C-3.863,-9.471 -2.327,-8.919 -1.399,-7.816C-0.468,-6.715 0,-5.008 0,-2.696L0,-1.351L-0.62,-1.351C-2.826,-1.351 -4.803,-1.265 -6.545,-1.094C-8.284,-0.923 -9.948,-0.542 -11.531,0.044C-13.117,0.629 -14.404,1.561 -15.386,2.836C-16.368,4.112 -16.859,5.802 -16.859,7.903C-16.859,8.628 -16.746,9.404 -16.521,10.23C-16.298,11.059 -15.877,11.86 -15.254,12.635C-14.638,13.411 -13.737,14.05 -12.568,14.549C-11.395,15.048 -9.929,15.3 -8.171,15.3C-6.448,15.3 -4.791,14.877 -3.208,14.031C-1.622,13.187 -0.484,12.006 0.207,10.491L0.308,10.491L0.308,14.731L3.516,14.731C3.411,13.902 3.345,13.111 3.31,12.351C3.274,11.593 3.255,10.542 3.255,9.197" style="fill:rgb(30,28,26);fill-rule:nonzero;"/>
                    </g>
                    <g transform="matrix(0.939548,0,0,0.550649,8136.26,4902.08)">
                        <rect x="281.016" y="84.416" width="3.878" height="4.395" style="fill:rgb(30,28,26);"/>
                    </g>
                    <g transform="matrix(0.939548,0,0,0.550649,8494.53,4932.24)">
                        <path d="M0,2.226C-0.706,1.604 -1.454,1.07 -2.249,0.622C-3.04,0.174 -3.988,-0.308 -5.091,-0.826C-5.403,-0.963 -5.59,-1.05 -5.66,-1.084C-7.348,-1.877 -8.607,-2.574 -9.434,-3.179C-10.264,-3.781 -10.677,-4.549 -10.677,-5.481C-10.677,-7.065 -10.186,-8.194 -9.204,-8.868C-8.221,-9.539 -6.814,-9.876 -4.99,-9.876C-4.093,-9.876 -3.099,-9.763 -2.015,-9.539C-0.928,-9.314 0.027,-9.014 0.853,-8.634L1.166,-11.478C0.097,-11.893 -1.052,-12.193 -2.273,-12.384C-3.497,-12.573 -4.522,-12.669 -5.349,-12.669C-6.487,-12.669 -7.566,-12.538 -8.584,-12.281C-9.601,-12.021 -10.513,-11.599 -11.324,-11.012C-12.135,-10.427 -12.77,-9.677 -13.238,-8.763C-13.702,-7.851 -13.936,-6.755 -13.936,-5.481C-13.936,-4.514 -13.745,-3.662 -13.367,-2.919C-12.985,-2.179 -12.486,-1.541 -11.866,-1.007C-11.246,-0.472 -10.584,-0.015 -9.874,0.365C-9.168,0.743 -8.245,1.191 -7.11,1.708L-6.748,1.914C-4.919,2.772 -3.547,3.586 -2.635,4.358C-1.723,5.13 -1.267,6.151 -1.267,7.421C-1.267,8.861 -1.836,10.003 -2.971,10.843C-4.109,11.683 -5.489,12.102 -7.11,12.102C-9.488,12.102 -11.78,11.551 -13.987,10.447L-14.295,13.683C-12.229,14.492 -9.765,14.895 -6.904,14.895C-5.832,14.895 -4.764,14.766 -3.695,14.507C-2.627,14.248 -1.637,13.827 -0.725,13.24C0.191,12.654 0.924,11.878 1.473,10.913C2.027,9.948 2.304,8.792 2.304,7.448C2.304,6.312 2.097,5.312 1.68,4.448C1.267,3.586 0.709,2.846 0,2.226" style="fill:rgb(30,28,26);fill-rule:nonzero;"/>
                    </g>
                    <g transform="matrix(0.939548,0,0,0.550649,8383.16,4950.9)">
                        <path d="M0,28.544C-0.464,28.649 -0.974,28.7 -1.524,28.7C-2.767,28.7 -3.66,28.305 -4.214,27.513C-4.763,26.724 -5.04,25.673 -5.04,24.366L-5.04,7.342L0.959,7.342L0.959,4.551L-5.04,4.551L-5.04,-2.949L-8.299,-1.81L-8.299,4.551L-13.468,4.551L-13.468,7.342L-8.299,7.342L-8.299,22.752C-8.299,24.235 -8.244,25.459 -8.143,26.424C-8.038,27.391 -7.796,28.26 -7.418,29.035C-7.04,29.811 -6.436,30.415 -5.609,30.846C-4.783,31.277 -3.68,31.493 -2.3,31.493C-1.575,31.493 -0.842,31.413 -0.101,31.255C0.64,31.098 1.232,30.947 1.684,30.807L1.477,28.08C0.959,28.287 0.468,28.441 0,28.544" style="fill:rgb(30,28,26);fill-rule:nonzero;"/>
                    </g>
                    <g transform="matrix(0.939548,0,0,0.550649,8481.84,4967.93)">
                        <path d="M0,-26.995C-1.279,-26.995 -2.405,-26.839 -3.388,-26.529C-4.37,-26.219 -5.181,-25.806 -5.82,-25.29C-6.455,-24.771 -6.982,-24.219 -7.395,-23.635C-7.808,-23.048 -8.19,-22.393 -8.533,-21.668L-8.638,-21.668L-8.638,-26.373L-11.792,-26.373C-11.652,-24.96 -11.586,-22.892 -11.586,-20.169L-11.586,0L-8.327,0L-8.327,-14.583C-8.327,-15.756 -8.19,-16.902 -7.913,-18.023C-7.636,-19.144 -7.196,-20.177 -6.596,-21.126C-5.991,-22.073 -5.181,-22.824 -4.163,-23.375C-3.146,-23.927 -1.933,-24.202 -0.518,-24.202C1.653,-24.202 3.239,-23.496 4.237,-22.081C5.239,-20.668 5.738,-18.653 5.738,-16.031L5.738,0L8.997,0L8.997,-16.858C8.997,-19.962 8.272,-22.428 6.825,-24.254C5.375,-26.081 3.103,-26.995 0,-26.995" style="fill:rgb(30,28,26);fill-rule:nonzero;"/>
                    </g>
                    <g transform="matrix(0.939548,0,0,0.550649,8382.99,4932.24)">
                        <path d="M0,2.226C-0.709,1.604 -1.458,1.07 -2.249,0.622C-3.044,0.174 -3.992,-0.308 -5.095,-0.826C-5.403,-0.963 -5.594,-1.05 -5.664,-1.084C-7.352,-1.877 -8.611,-2.574 -9.437,-3.179C-10.264,-3.781 -10.677,-4.549 -10.677,-5.481C-10.677,-7.065 -10.186,-8.194 -9.203,-8.868C-8.221,-9.539 -6.818,-9.876 -4.99,-9.876C-4.093,-9.876 -3.103,-9.763 -2.019,-9.539C-0.932,-9.314 0.028,-9.014 0.854,-8.634L1.162,-11.478C0.094,-11.893 -1.052,-12.193 -2.277,-12.384C-3.5,-12.573 -4.526,-12.669 -5.352,-12.669C-6.49,-12.669 -7.566,-12.538 -8.583,-12.281C-9.601,-12.021 -10.513,-11.599 -11.324,-11.012C-12.135,-10.427 -12.774,-9.677 -13.238,-8.763C-13.702,-7.851 -13.936,-6.755 -13.936,-5.481C-13.936,-4.514 -13.749,-3.662 -13.367,-2.919C-12.989,-2.179 -12.49,-1.541 -11.866,-1.007C-11.246,-0.472 -10.583,-0.015 -9.878,0.365C-9.172,0.743 -8.248,1.191 -7.11,1.708L-6.747,1.914C-4.919,2.772 -3.551,3.586 -2.639,4.358C-1.723,5.13 -1.267,6.151 -1.267,7.421C-1.267,8.861 -1.836,10.003 -2.974,10.843C-4.112,11.683 -5.489,12.102 -7.11,12.102C-9.488,12.102 -11.78,11.551 -13.987,10.447L-14.298,13.683C-12.228,14.492 -9.765,14.895 -6.903,14.895C-5.836,14.895 -4.767,14.766 -3.699,14.507C-2.627,14.248 -1.637,13.827 -0.725,13.24C0.191,12.654 0.92,11.878 1.474,10.913C2.023,9.948 2.3,8.792 2.3,7.448C2.3,6.312 2.094,5.312 1.68,4.448C1.267,3.586 0.706,2.846 0,2.226" style="fill:rgb(30,28,26);fill-rule:nonzero;"/>
                    </g>
                    <g transform="matrix(0.939548,0,0,0.550649,8471.64,4926.29)">
                        <path d="M0,16.961C0,18.444 0.051,19.668 0.156,20.633C0.258,21.598 0.499,22.469 0.877,23.245C1.259,24.021 1.859,24.625 2.69,25.054C3.516,25.486 4.619,25.701 5.996,25.701C6.72,25.701 7.454,25.623 8.194,25.463C8.935,25.305 9.531,25.157 9.979,25.015L9.773,22.288C9.254,22.494 8.763,22.651 8.299,22.754C7.836,22.857 7.325,22.908 6.775,22.908C5.532,22.908 4.635,22.512 4.086,21.721C3.532,20.931 3.259,19.881 3.259,18.575L3.259,1.552L9.254,1.552L9.254,-1.241L3.259,-1.241L3.259,-8.74L0,-7.603L0,-1.241L-5.173,-1.241L-5.173,1.552L0,1.552L0,16.961Z" style="fill:rgb(30,28,26);fill-rule:nonzero;"/>
                    </g>
                    <g transform="matrix(0.939548,0,0,0.550649,8424.96,4933.87)">
                        <path d="M0,-3.668C0,-4.773 0.183,-5.866 0.546,-6.954C0.908,-8.038 1.423,-9.03 2.097,-9.926C2.767,-10.823 3.586,-11.531 4.553,-12.047C5.516,-12.564 6.584,-12.823 7.757,-12.823C8.931,-12.823 9.948,-12.573 10.81,-12.072C11.671,-11.573 12.369,-10.891 12.903,-10.03C13.437,-9.168 13.835,-8.194 14.092,-7.108C14.349,-6.022 14.482,-4.876 14.482,-3.668L0,-3.668ZM15.542,-11.788C14.696,-12.994 13.601,-13.934 12.256,-14.606C10.911,-15.279 9.344,-15.616 7.551,-15.616C5.929,-15.616 4.432,-15.279 3.052,-14.606C1.672,-13.934 0.491,-12.977 -0.491,-11.737C-1.474,-10.495 -2.23,-9.03 -2.764,-7.34C-3.302,-5.652 -3.567,-3.808 -3.567,-1.808C-3.567,0.226 -3.345,2.08 -2.896,3.752C-2.448,5.425 -1.746,6.88 -0.799,8.122C0.148,9.364 1.387,10.311 2.924,10.965C4.456,11.621 6.291,11.948 8.432,11.948C9.706,11.948 11.024,11.825 12.384,11.58C13.749,11.334 14.981,10.981 16.084,10.525L16.084,7.19C15.292,7.707 14.142,8.165 12.645,8.561C11.145,8.956 9.827,9.155 8.689,9.155C5.964,9.155 3.836,8.214 2.304,6.325C0.768,4.44 0,2.039 0,-0.877L18.048,-0.877L18.048,-2.532C18.048,-4.358 17.842,-6.058 17.429,-7.627C17.015,-9.193 16.384,-10.581 15.542,-11.788" style="fill:rgb(30,28,26);fill-rule:nonzero;"/>
                    </g>
                    <g transform="matrix(0.939548,0,0,0.550649,8365.65,4960.04)">
                        <path d="M0,2.222C-0.709,1.602 -1.458,1.068 -2.253,0.62C-3.044,0.172 -3.992,-0.312 -5.095,-0.828C-5.407,-0.966 -5.598,-1.052 -5.664,-1.088C-7.352,-1.879 -8.611,-2.578 -9.438,-3.181C-10.268,-3.785 -10.681,-4.553 -10.681,-5.483C-10.681,-7.069 -10.19,-8.198 -9.207,-8.87C-8.225,-9.543 -6.818,-9.878 -4.994,-9.878C-4.097,-9.878 -3.103,-9.767 -2.02,-9.543C-0.932,-9.318 0.023,-9.016 0.85,-8.638L1.161,-11.482C0.093,-11.895 -1.053,-12.197 -2.277,-12.386C-3.501,-12.575 -4.526,-12.671 -5.352,-12.671C-6.491,-12.671 -7.57,-12.542 -8.584,-12.283C-9.601,-12.024 -10.517,-11.603 -11.328,-11.016C-12.135,-10.431 -12.774,-9.679 -13.238,-8.767C-13.706,-7.853 -13.936,-6.759 -13.936,-5.483C-13.936,-4.518 -13.749,-3.664 -13.371,-2.924C-12.989,-2.181 -12.49,-1.544 -11.87,-1.01C-11.25,-0.476 -10.584,-0.019 -9.878,0.361C-9.173,0.741 -8.248,1.189 -7.11,1.705L-6.752,1.912C-4.923,2.77 -3.551,3.584 -2.639,4.356C-1.727,5.128 -1.271,6.147 -1.271,7.418C-1.271,8.859 -1.836,9.999 -2.974,10.839C-4.113,11.679 -5.493,12.1 -7.11,12.1C-9.492,12.1 -11.784,11.548 -13.991,10.445L-14.298,13.681C-12.233,14.488 -9.765,14.893 -6.908,14.893C-5.836,14.893 -4.767,14.762 -3.7,14.505C-2.632,14.246 -1.637,13.823 -0.725,13.238C0.187,12.652 0.92,11.876 1.473,10.911C2.023,9.944 2.3,8.79 2.3,7.446C2.3,6.307 2.093,5.307 1.68,4.446C1.267,3.584 0.706,2.842 0,2.222" style="fill:rgb(30,28,26);fill-rule:nonzero;"/>
                    </g>
                    <g transform="matrix(0.939548,0,0,0.550649,8423.82,4950.9)">
                        <path d="M0,28.544C-0.467,28.649 -0.974,28.7 -1.528,28.7C-2.767,28.7 -3.664,28.305 -4.214,27.513C-4.767,26.724 -5.044,25.673 -5.044,24.366L-5.044,7.342L0.955,7.342L0.955,4.551L-5.044,4.551L-5.044,-2.949L-8.299,-1.81L-8.299,4.551L-13.472,4.551L-13.472,7.342L-8.299,7.342L-8.299,22.752C-8.299,24.235 -8.248,25.459 -8.147,26.424C-8.042,27.391 -7.8,28.26 -7.422,29.035C-7.044,29.811 -6.439,30.415 -5.613,30.846C-4.783,31.277 -3.684,31.493 -2.304,31.493C-1.579,31.493 -0.846,31.413 -0.105,31.255C0.635,31.098 1.232,30.947 1.68,30.807L1.474,28.08C0.955,28.287 0.464,28.441 0,28.544" style="fill:rgb(30,28,26);fill-rule:nonzero;"/>
                    </g>
                    <g transform="matrix(0.939548,0,0,0.550649,8411.61,4920.85)">
                        <path d="M0,31.807C-1.018,32.462 -2.214,32.787 -3.594,32.787C-5.076,32.787 -6.323,32.469 -7.34,31.835C-8.358,31.197 -9.169,30.355 -9.773,29.307C-10.377,28.258 -10.798,27.096 -11.04,25.823C-11.281,24.551 -11.402,23.21 -11.402,21.799C-11.402,20.39 -11.273,19.047 -11.013,17.774C-10.755,16.503 -10.334,15.341 -9.745,14.293C-9.161,13.244 -8.358,12.4 -7.34,11.765C-6.323,11.128 -5.076,10.81 -3.594,10.81C-2.214,10.81 -1.025,11.137 -0.024,11.79C0.974,12.443 1.785,13.312 2.405,14.396C3.025,15.48 3.485,16.667 3.773,17.957C4.069,19.245 4.214,20.526 4.214,21.799C4.214,23.071 4.069,24.352 3.773,25.642C3.485,26.932 3.036,28.119 2.432,29.203C1.828,30.287 1.017,31.154 0,31.807M4.113,30.822L4.214,30.822L4.214,35.012L7.473,35.012L7.473,-3.773L4.214,-3.773L4.214,13.086L4.113,13.086C3.972,12.706 3.707,12.232 3.31,11.663C2.916,11.094 2.37,10.533 1.68,9.983C0.99,9.432 0.156,8.966 -0.826,8.585C-1.809,8.208 -2.904,8.017 -4.109,8.017C-6.007,8.017 -7.644,8.354 -9.021,9.026C-10.401,9.699 -11.539,10.656 -12.435,11.895C-14.123,14.275 -14.969,17.585 -14.969,21.824C-14.969,25.894 -14.029,29.203 -12.151,31.754C-10.272,34.306 -7.593,35.58 -4.109,35.58C-0.32,35.58 2.424,33.994 4.113,30.822" style="fill:rgb(30,28,26);fill-rule:nonzero;"/>
                    </g>
                    <g transform="matrix(0.939548,0,0,0.550649,8440.09,4950.9)">
                        <path d="M0,28.544C-0.464,28.649 -0.974,28.7 -1.524,28.7C-2.767,28.7 -3.664,28.305 -4.214,27.513C-4.767,26.724 -5.04,25.673 -5.04,24.366L-5.04,7.342L0.955,7.342L0.955,4.551L-5.04,4.551L-5.04,-2.949L-8.299,-1.81L-8.299,4.551L-13.472,4.551L-13.472,7.342L-8.299,7.342L-8.299,22.752C-8.299,24.235 -8.248,25.459 -8.143,26.424C-8.042,27.391 -7.8,28.26 -7.422,29.035C-7.04,29.811 -6.439,30.415 -5.609,30.846C-4.783,31.277 -3.68,31.493 -2.3,31.493C-1.579,31.493 -0.846,31.413 -0.105,31.255C0.635,31.098 1.232,30.947 1.68,30.807L1.474,28.08C0.955,28.287 0.464,28.441 0,28.544" style="fill:rgb(30,28,26);fill-rule:nonzero;"/>
                    </g>
                    <g transform="matrix(0.939548,0,0,0.550649,8292.13,4967.93)">
                        <path d="M0,-26.995C-1.279,-26.995 -2.405,-26.839 -3.387,-26.529C-4.37,-26.219 -5.181,-25.806 -5.82,-25.29C-6.455,-24.771 -6.982,-24.219 -7.395,-23.635C-7.808,-23.048 -8.19,-22.393 -8.533,-21.668L-8.639,-21.668L-8.639,-26.373L-11.792,-26.373C-11.652,-24.96 -11.586,-22.892 -11.586,-20.169L-11.586,0L-8.327,0L-8.327,-14.583C-8.327,-15.756 -8.19,-16.902 -7.913,-18.023C-7.636,-19.144 -7.196,-20.177 -6.596,-21.126C-5.991,-22.073 -5.181,-22.824 -4.163,-23.375C-3.146,-23.927 -1.933,-24.202 -0.518,-24.202C1.653,-24.202 3.239,-23.496 4.241,-22.081C5.239,-20.668 5.738,-18.653 5.738,-16.031L5.738,0L8.997,0L8.997,-16.858C8.997,-19.962 8.272,-22.428 6.825,-24.254C5.376,-26.081 3.103,-26.995 0,-26.995" style="fill:rgb(30,28,26);fill-rule:nonzero;"/>
                    </g>
                    <g transform="matrix(0.939548,0,0,0.550649,8249.26,4935.68)">
                        <path d="M0,-10.241C0.363,-11.325 0.881,-12.317 1.552,-13.213C2.226,-14.11 3.044,-14.817 4.007,-15.334C4.974,-15.85 6.042,-16.109 7.215,-16.109C8.385,-16.109 9.403,-15.86 10.264,-15.359C11.125,-14.86 11.827,-14.178 12.361,-13.316C12.891,-12.455 13.289,-11.481 13.546,-10.395C13.807,-9.309 13.936,-8.163 13.936,-6.955L-0.542,-6.955C-0.542,-8.06 -0.362,-9.153 0,-10.241M11.843,8.293C13.203,8.047 14.435,7.695 15.538,7.238L15.538,3.903C14.747,4.42 13.601,4.878 12.1,5.274C10.599,5.669 9.281,5.868 8.143,5.868C5.422,5.868 3.294,4.927 1.758,3.038C0.226,1.154 -0.542,-1.248 -0.542,-4.164L17.503,-4.164L17.503,-5.819C17.503,-7.645 17.296,-9.344 16.883,-10.913C16.47,-12.48 15.843,-13.868 14.996,-15.074C14.15,-16.281 13.055,-17.22 11.714,-17.893C10.369,-18.565 8.798,-18.902 7.009,-18.902C5.387,-18.902 3.887,-18.565 2.507,-17.893C1.13,-17.22 -0.051,-16.264 -1.033,-15.024C-2.015,-13.782 -2.775,-12.317 -3.31,-10.627C-3.844,-8.939 -4.113,-7.095 -4.113,-5.095C-4.113,-3.061 -3.886,-1.207 -3.438,0.465C-2.99,2.138 -2.292,3.594 -1.345,4.835C-0.397,6.077 0.846,7.024 2.378,7.679C3.914,8.334 5.75,8.661 7.886,8.661C9.161,8.661 10.482,8.539 11.843,8.293" style="fill:rgb(30,28,26);fill-rule:nonzero;"/>
                    </g>
                    <g transform="matrix(0.939548,0,0,0.550649,8273.49,4968.24)">
                        <path d="M0,-26.942L-3.259,-26.942L-3.259,-12.392C-3.259,-11.221 -3.395,-10.077 -3.672,-8.96C-3.949,-7.841 -4.386,-6.818 -4.99,-5.89C-5.594,-4.96 -6.401,-4.212 -7.418,-3.645C-8.436,-3.078 -9.652,-2.793 -11.067,-2.793C-13.238,-2.793 -14.825,-3.506 -15.823,-4.935C-16.825,-6.364 -17.324,-8.367 -17.324,-10.946L-17.324,-26.942L-20.582,-26.942L-20.582,-10.085C-20.582,-6.982 -19.857,-4.526 -18.407,-2.715C-16.961,-0.906 -14.685,0 -11.581,0C-10.272,0 -9.133,-0.148 -8.171,-0.44C-7.204,-0.733 -6.397,-1.138 -5.742,-1.654C-5.087,-2.173 -4.557,-2.723 -4.163,-3.309C-3.766,-3.896 -3.395,-4.551 -3.052,-5.276L-2.947,-5.276L-2.947,-0.569L0.206,-0.569C0.07,-1.984 0,-4.052 0,-6.775L0,-26.942Z" style="fill:rgb(30,28,26);fill-rule:nonzero;"/>
                    </g>
                    <g transform="matrix(0.939548,0,0,0.550649,8537.88,4918.78)">
                        <path d="M0,38.785L0,23.013C0,21.288 -0.145,19.754 -0.441,18.409C-0.733,17.066 -1.213,15.893 -1.887,14.893C-2.557,13.895 -3.481,13.127 -4.655,12.593C-5.824,12.059 -7.274,11.79 -8.997,11.79C-10.857,11.79 -12.513,12.256 -13.959,13.188C-15.409,14.117 -16.493,15.341 -17.218,16.86L-17.323,16.86L-17.323,0L-20.578,0L-20.578,38.785L-17.323,38.785L-17.323,24.667C-17.323,23.461 -17.176,22.262 -16.883,21.074C-16.591,19.885 -16.142,18.797 -15.538,17.814C-14.934,16.833 -14.123,16.049 -13.106,15.462C-12.092,14.877 -10.895,14.583 -9.515,14.583C-8.206,14.583 -7.134,14.8 -6.307,15.23C-5.481,15.661 -4.842,16.265 -4.393,17.041C-3.949,17.814 -3.645,18.694 -3.489,19.676C-3.333,20.66 -3.255,21.789 -3.255,23.064L-3.255,38.785L0,38.785Z" style="fill:rgb(30,28,26);fill-rule:nonzero;"/>
                    </g>
                    <g transform="matrix(0.939548,0,0,0.550649,8343.79,4935.68)">
                        <path d="M0,-10.241C0.358,-11.325 0.877,-12.317 1.551,-13.213C2.222,-14.11 3.041,-14.817 4.007,-15.334C4.97,-15.85 6.042,-16.109 7.211,-16.109C8.385,-16.109 9.402,-15.86 10.264,-15.359C11.125,-14.86 11.823,-14.178 12.357,-13.316C12.891,-12.455 13.289,-11.481 13.546,-10.395C13.807,-9.309 13.936,-8.163 13.936,-6.955L-0.546,-6.955C-0.546,-8.06 -0.363,-9.153 0,-10.241M15.538,7.238L15.538,3.903C14.743,4.42 13.597,4.878 12.1,5.274C10.599,5.669 9.281,5.868 8.143,5.868C5.418,5.868 3.29,4.927 1.758,3.038C0.222,1.154 -0.546,-1.248 -0.546,-4.164L17.502,-4.164L17.502,-5.819C17.502,-7.645 17.296,-9.344 16.883,-10.913C16.47,-12.48 15.838,-13.868 14.996,-15.074C14.15,-16.281 13.055,-17.22 11.71,-17.893C10.365,-18.565 8.798,-18.902 7.005,-18.902C5.387,-18.902 3.886,-18.565 2.507,-17.893C1.127,-17.22 -0.055,-16.264 -1.037,-15.024C-2.019,-13.782 -2.775,-12.317 -3.31,-10.627C-3.844,-8.939 -4.113,-7.095 -4.113,-5.095C-4.113,-3.061 -3.887,-1.207 -3.438,0.465C-2.99,2.138 -2.292,3.594 -1.345,4.835C-0.398,6.077 0.842,7.024 2.378,7.679C3.913,8.334 5.746,8.661 7.886,8.661C9.161,8.661 10.478,8.539 11.839,8.293C13.203,8.047 14.435,7.695 15.538,7.238" style="fill:rgb(30,28,26);fill-rule:nonzero;"/>
                    </g>
                    <g transform="matrix(0.939548,0,0,0.550649,8513.12,4961.67)">
                        <path d="M0,-3.672C0,-4.775 0.179,-5.871 0.542,-6.956C0.905,-8.042 1.419,-9.032 2.093,-9.931C2.764,-10.825 3.583,-11.532 4.549,-12.049C5.516,-12.568 6.584,-12.825 7.754,-12.825C8.927,-12.825 9.944,-12.576 10.806,-12.077C11.667,-11.576 12.365,-10.896 12.899,-10.034C13.433,-9.17 13.831,-8.198 14.088,-7.112C14.349,-6.024 14.478,-4.878 14.478,-3.672L0,-3.672ZM15.538,-11.792C14.692,-12.996 13.601,-13.938 12.256,-14.61C10.911,-15.281 9.34,-15.618 7.547,-15.618C5.929,-15.618 4.429,-15.281 3.049,-14.61C1.673,-13.938 0.491,-12.981 -0.491,-11.739C-1.473,-10.497 -2.234,-9.032 -2.767,-7.344C-3.301,-5.654 -3.57,-3.811 -3.57,-1.811C-3.57,0.224 -3.345,2.078 -2.896,3.75C-2.448,5.42 -1.75,6.876 -0.803,8.12C0.144,9.36 1.388,10.307 2.92,10.962C4.456,11.619 6.292,11.946 8.428,11.946C9.703,11.946 11.02,11.823 12.385,11.576C13.745,11.33 14.977,10.979 16.08,10.523L16.08,7.188C15.289,7.705 14.143,8.161 12.642,8.559C11.141,8.954 9.823,9.153 8.685,9.153C5.964,9.153 3.836,8.21 2.3,6.323C0.764,4.436 0,2.035 0,-0.879L18.045,-0.879L18.045,-2.533C18.045,-4.362 17.838,-6.059 17.425,-7.629C17.012,-9.196 16.384,-10.585 15.538,-11.792" style="fill:rgb(30,28,26);fill-rule:nonzero;"/>
                    </g>
                    <g transform="matrix(0.939548,0,0,0.550649,8243.22,4952.05)">
                        <path d="M0,19.478C-0.293,20.768 -0.741,21.953 -1.341,23.037C-1.945,24.121 -2.756,24.99 -3.773,25.643C-4.791,26.296 -5.988,26.623 -7.368,26.623C-8.849,26.623 -10.1,26.305 -11.118,25.668C-12.135,25.033 -12.942,24.191 -13.546,23.14C-14.15,22.092 -14.571,20.93 -14.813,19.657C-15.055,18.386 -15.176,17.045 -15.176,15.634C-15.176,14.223 -15.047,12.882 -14.786,11.61C-14.529,10.337 -14.107,9.177 -13.519,8.126C-12.934,7.078 -12.135,6.236 -11.118,5.598C-10.1,4.963 -8.849,4.645 -7.368,4.645C-5.988,4.645 -4.799,4.973 -3.801,5.624C-2.799,6.279 -1.988,7.148 -1.368,8.23C-0.748,9.314 -0.293,10.5 0,11.791C0.296,13.081 0.44,14.361 0.44,15.634C0.44,16.905 0.296,18.187 0,19.478M0.44,6.92L0.339,6.92C0.199,6.54 -0.066,6.066 -0.464,5.499C-0.861,4.93 -1.404,4.369 -2.093,3.817C-2.784,3.265 -3.618,2.801 -4.6,2.419C-5.582,2.041 -6.678,1.852 -7.886,1.852C-9.78,1.852 -11.418,2.189 -12.798,2.86C-14.174,3.532 -15.316,4.489 -16.209,5.731C-17.901,8.111 -18.742,11.42 -18.742,15.66C-18.742,19.727 -17.803,23.037 -15.924,25.59C-14.045,28.139 -11.367,29.416 -7.886,29.416C-4.093,29.416 -1.353,27.83 0.339,24.658L0.44,24.658L0.44,28.847L3.699,28.847L3.699,-9.938L0.44,-9.938L0.44,6.92Z" style="fill:rgb(30,28,26);fill-rule:nonzero;"/>
                    </g>
                    <g transform="matrix(0.939548,0,0,0.550649,8284.84,4921.48)">
                        <path d="M0,34.44C0.725,34.44 1.458,34.362 2.199,34.202C2.939,34.044 3.536,33.896 3.98,33.754L3.777,31.027C3.259,31.234 2.768,31.39 2.3,31.493C1.836,31.596 1.33,31.647 0.776,31.647C-0.464,31.647 -1.36,31.251 -1.914,30.46C-2.463,29.671 -2.74,28.62 -2.74,27.314L-2.74,10.291L3.259,10.291L3.259,7.498L-2.74,7.498L-2.74,0L-5.999,1.136L-5.999,7.498L-11.168,7.498L-11.168,10.291L-5.999,10.291L-5.999,25.7C-5.999,27.184 -5.944,28.408 -5.843,29.372C-5.738,30.337 -5.496,31.209 -5.118,31.984C-4.74,32.76 -4.136,33.364 -3.31,33.793C-2.483,34.226 -1.38,34.44 0,34.44" style="fill:rgb(30,28,26);fill-rule:nonzero;"/>
                    </g>
                    <g transform="matrix(0.939548,0,0,0.550649,8515.99,4925.76)">
                        <path d="M0,25.77L-0.308,22.685C-2.448,23.478 -4.428,23.874 -6.256,23.874C-7.703,23.874 -9.024,23.591 -10.213,23.022C-11.402,22.457 -12.411,21.665 -13.238,20.65C-14.064,19.636 -14.704,18.465 -15.152,17.141C-15.6,15.816 -15.822,14.399 -15.822,12.885C-15.822,9.618 -14.945,6.969 -13.187,4.94C-11.429,2.911 -8.997,1.896 -5.894,1.896C-5.067,1.896 -4.155,2.016 -3.153,2.258C-2.155,2.5 -1.189,2.828 -0.257,3.241L0,0.137C-0.791,-0.137 -1.715,-0.379 -2.767,-0.585C-3.816,-0.792 -5.017,-0.897 -6.362,-0.897C-8.291,-0.897 -10.057,-0.56 -11.663,0.112C-13.261,0.785 -14.641,1.732 -15.795,2.956C-16.953,4.18 -17.838,5.646 -18.462,7.351C-19.081,9.059 -19.389,10.91 -19.389,12.91C-19.389,14.773 -19.124,16.539 -18.59,18.212C-18.056,19.884 -17.261,21.358 -16.212,22.634C-15.16,23.909 -13.83,24.901 -12.228,25.606C-10.626,26.314 -8.81,26.667 -6.775,26.667C-5.43,26.667 -4.226,26.606 -3.153,26.482C-2.085,26.361 -1.033,26.123 0,25.77" style="fill:rgb(30,28,26);fill-rule:nonzero;"/>
                    </g>
                    <g transform="matrix(0.939548,0,0,0.550649,8346.68,4960.04)">
                        <path d="M0,2.222C-0.705,1.602 -1.458,1.068 -2.249,0.62C-3.044,0.172 -3.992,-0.312 -5.095,-0.828C-5.403,-0.966 -5.594,-1.052 -5.664,-1.088C-7.352,-1.879 -8.611,-2.578 -9.437,-3.181C-10.264,-3.785 -10.677,-4.553 -10.677,-5.483C-10.677,-7.069 -10.186,-8.198 -9.203,-8.87C-8.221,-9.543 -6.818,-9.878 -4.99,-9.878C-4.093,-9.878 -3.103,-9.767 -2.019,-9.543C-0.932,-9.318 0.024,-9.016 0.854,-8.638L1.162,-11.482C0.094,-11.895 -1.052,-12.197 -2.277,-12.386C-3.5,-12.575 -4.526,-12.671 -5.352,-12.671C-6.49,-12.671 -7.566,-12.542 -8.584,-12.283C-9.601,-12.024 -10.513,-11.603 -11.324,-11.016C-12.135,-10.431 -12.774,-9.679 -13.238,-8.767C-13.702,-7.853 -13.936,-6.759 -13.936,-5.483C-13.936,-4.518 -13.749,-3.664 -13.367,-2.924C-12.989,-2.181 -12.49,-1.544 -11.87,-1.01C-11.246,-0.476 -10.583,-0.019 -9.878,0.361C-9.172,0.741 -8.248,1.189 -7.11,1.705L-6.747,1.912C-4.923,2.77 -3.551,3.584 -2.639,4.356C-1.727,5.128 -1.267,6.147 -1.267,7.418C-1.267,8.859 -1.836,9.999 -2.974,10.839C-4.112,11.679 -5.492,12.1 -7.11,12.1C-9.492,12.1 -11.784,11.548 -13.987,10.445L-14.298,13.681C-12.228,14.488 -9.765,14.893 -6.904,14.893C-5.836,14.893 -4.767,14.762 -3.699,14.505C-2.631,14.246 -1.637,13.823 -0.725,13.238C0.187,12.652 0.92,11.876 1.474,10.911C2.023,9.944 2.3,8.79 2.3,7.446C2.3,6.307 2.093,5.307 1.68,4.446C1.267,3.584 0.706,2.842 0,2.222" style="fill:rgb(30,28,26);fill-rule:nonzero;"/>
                    </g>
                    <g transform="matrix(0.939548,0,0,0.550649,8302.09,4932.24)">
                        <path d="M0,2.226C-0.706,1.604 -1.458,1.07 -2.249,0.622C-3.041,0.174 -3.992,-0.308 -5.095,-0.826C-5.403,-0.963 -5.594,-1.05 -5.664,-1.084C-7.352,-1.877 -8.611,-2.574 -9.437,-3.179C-10.264,-3.781 -10.677,-4.549 -10.677,-5.481C-10.677,-7.065 -10.186,-8.194 -9.204,-8.868C-8.221,-9.539 -6.818,-9.876 -4.99,-9.876C-4.093,-9.876 -3.103,-9.763 -2.015,-9.539C-0.932,-9.314 0.027,-9.014 0.854,-8.634L1.162,-11.478C0.094,-11.893 -1.053,-12.193 -2.277,-12.384C-3.501,-12.573 -4.526,-12.669 -5.352,-12.669C-6.49,-12.669 -7.567,-12.538 -8.584,-12.281C-9.601,-12.021 -10.513,-11.599 -11.324,-11.012C-12.135,-10.427 -12.774,-9.677 -13.238,-8.763C-13.702,-7.851 -13.936,-6.755 -13.936,-5.481C-13.936,-4.514 -13.749,-3.662 -13.367,-2.919C-12.988,-2.179 -12.489,-1.541 -11.866,-1.007C-11.246,-0.472 -10.583,-0.015 -9.878,0.365C-9.168,0.743 -8.248,1.191 -7.11,1.708L-6.748,1.914C-4.92,2.772 -3.551,3.586 -2.639,4.358C-1.727,5.13 -1.267,6.151 -1.267,7.421C-1.267,8.861 -1.836,10.003 -2.975,10.843C-4.113,11.683 -5.492,12.102 -7.11,12.102C-9.488,12.102 -11.784,11.551 -13.986,10.447L-14.299,13.683C-12.229,14.492 -9.765,14.895 -6.904,14.895C-5.836,14.895 -4.768,14.766 -3.699,14.507C-2.627,14.248 -1.637,13.827 -0.725,13.24C0.191,12.654 0.924,11.878 1.473,10.913C2.023,9.948 2.3,8.792 2.3,7.448C2.3,6.312 2.093,5.312 1.68,4.448C1.267,3.586 0.705,2.846 0,2.226" style="fill:rgb(30,28,26);fill-rule:nonzero;"/>
                    </g>
                    <g transform="matrix(0.939548,0,0,0.550649,8335.22,4937.74)">
                        <path d="M0,-18.307C0.842,-18.926 1.886,-19.236 3.126,-19.236C4.058,-19.236 4.849,-19.135 5.504,-18.926L5.504,-22.339C5.196,-22.443 4.826,-22.52 4.393,-22.573C3.964,-22.624 3.575,-22.651 3.231,-22.651C1.68,-22.651 0.327,-22.117 -0.83,-21.047C-1.984,-19.979 -2.889,-18.617 -3.543,-16.962L-3.649,-16.962L-3.649,-22.029L-6.908,-22.029C-6.802,-21.133 -6.744,-20.332 -6.724,-19.626C-6.705,-18.919 -6.697,-17.755 -6.697,-16.135L-6.697,4.344L-3.438,4.344L-3.438,-8.688C-3.438,-9.998 -3.337,-11.265 -3.13,-12.489C-2.924,-13.713 -2.561,-14.833 -2.043,-15.851C-1.528,-16.866 -0.846,-17.685 0,-18.307" style="fill:rgb(30,28,26);fill-rule:nonzero;"/>
                    </g>
                    <g transform="matrix(0.939548,0,0,0.550649,8324.49,4964.39)">
                        <path d="M0,-2.999C-0.293,-1.777 -0.76,-0.664 -1.396,0.336C-2.035,1.336 -2.869,2.137 -3.906,2.741C-4.939,3.345 -6.163,3.645 -7.578,3.645C-8.888,3.645 -10.034,3.361 -11.016,2.792C-11.999,2.222 -12.802,1.439 -13.421,0.439C-14.041,-0.561 -14.489,-1.672 -14.766,-2.896C-15.039,-4.12 -15.179,-5.404 -15.179,-6.749C-15.179,-8.162 -15.047,-9.507 -14.79,-10.782C-14.532,-12.059 -14.112,-13.222 -13.523,-14.272C-12.938,-15.325 -12.135,-16.169 -11.118,-16.808C-10.1,-17.444 -8.853,-17.764 -7.371,-17.764C-5.921,-17.764 -4.689,-17.498 -3.672,-16.962C-2.654,-16.428 -1.844,-15.67 -1.243,-14.688C-0.64,-13.706 -0.207,-12.559 0.051,-11.248C0.308,-9.938 0.437,-8.439 0.437,-6.749C0.437,-5.473 0.292,-4.225 0,-2.999M0.437,-16.937L0.335,-16.937C-0.803,-18.418 -1.973,-19.393 -3.181,-19.859C-4.389,-20.325 -5.956,-20.557 -7.886,-20.557C-9.785,-20.557 -11.422,-20.219 -12.802,-19.549C-14.178,-18.876 -15.316,-17.919 -16.212,-16.678C-17.901,-14.298 -18.746,-10.989 -18.746,-6.749C-18.746,-5.198 -18.547,-3.646 -18.154,-2.095C-17.76,-0.543 -17.128,0.87 -16.271,2.146C-15.41,3.421 -14.26,4.456 -12.813,5.247C-11.371,6.041 -9.652,6.438 -7.656,6.438C-5.871,6.438 -4.296,6.033 -2.939,5.222C-1.583,4.413 -0.491,3.093 0.335,1.267L0.437,1.267C0.437,3.439 0.343,5.282 0.156,6.799C-0.035,8.317 -0.429,9.678 -1.029,10.884C-1.633,12.092 -2.55,13.039 -3.789,13.73C-5.025,14.419 -6.643,14.763 -8.634,14.763C-9.975,14.763 -11.332,14.591 -12.708,14.248C-14.08,13.901 -15.304,13.453 -16.368,12.904L-16.625,16.158L-16.575,16.158C-15.331,16.54 -14.076,16.868 -12.802,17.141C-11.523,17.417 -10.143,17.558 -8.662,17.558C-6.455,17.558 -4.561,17.219 -2.974,16.548C-1.388,15.874 -0.105,14.926 0.877,13.703C1.859,12.478 2.577,11.067 3.025,9.463C3.473,7.859 3.695,6.128 3.695,4.265L3.695,-19.935L0.437,-19.935L0.437,-16.937Z" style="fill:rgb(30,28,26);fill-rule:nonzero;"/>
                    </g>
                    <g transform="matrix(0.939548,0,0,0.550649,8424.78,4824.18)">
                        <path d="M0,139.412C0,147.635 6.666,154.301 14.891,154.301C23.112,154.301 29.778,147.635 29.778,139.412C29.778,131.189 23.112,124.523 14.891,124.523C6.666,124.523 0,131.189 0,139.412M0.07,-14.889L28.745,-14.889L28.745,112.306L3.22,112.314L3.271,99.123C-6.034,110.117 -20.641,114.643 -30.246,114.643C-32.089,114.643 -42.782,112.961 -46.029,111.686C-46.029,111.686 -84.411,95.694 -67.668,45.227C-60.039,22.571 -35.972,14.911 -18.056,14.911C-16.208,14.911 -7.648,15.656 0.07,17.213L0.07,-14.889ZM0.94,38.651C0.791,48.061 1.088,70.84 1.088,70.84C1.088,70.84 -2.148,97.341 -23.155,95.113C-39.044,93.428 -49.479,74.241 -43.223,55.859C-40.003,46.398 -31.248,35.793 -15.433,35.207C-2.799,34.737 0.963,37.083 0.94,38.651" style="fill:rgb(179,56,89);"/>
                    </g>
                </g>
            </g>
        </g>
    </g>
</svg>
