<?xml version="1.0" encoding="UTF-8" standalone="no"?>
<!DOCTYPE svg PUBLIC "-//W3C//DTD SVG 1.1//EN" "http://www.w3.org/Graphics/SVG/1.1/DTD/svg11.dtd">
<svg width="100%" height="100%" viewBox="0 0 251 101" version="1.1" xmlns="http://www.w3.org/2000/svg" xmlns:xlink="http://www.w3.org/1999/xlink" xml:space="preserve" xmlns:serif="http://www.serif.com/" style="fill-rule:evenodd;clip-rule:evenodd;stroke-linejoin:round;stroke-miterlimit:2;">
    <g transform="matrix(1,0,0,1,-10380,-1966)">
        <g id="logo-invia-flights" transform="matrix(0.625,0,0,0.625,5270.14,-1041.85)">
            <rect x="8176.21" y="4814.05" width="400" height="160" style="fill:none;"/>
            <clipPath id="_clip1">
                <rect x="8176.21" y="4814.05" width="400" height="160"/>
            </clipPath>
            <g clip-path="url(#_clip1)">
                <g id="logo-invia-flights1" serif:id="logo-invia-flights" transform="matrix(1,0,0,1.00145,8176.21,4814.05)">
                    <path d="M26.074,40.501L0.064,40.501L0.064,139.423C8.646,136.332 17.32,133.502 26.074,130.937L26.074,40.501ZM0,0L26.48,0L26.48,23.172L0,23.172L0,0ZM66.915,93.873C66.915,70.692 79.569,60.63 94.331,60.63C109.09,60.63 114.011,69.528 114.011,85.213L114.011,118.832C123.27,119.266 131.961,120.295 140.261,121.762L140.261,80.058C140.261,53.835 126.672,38.158 102.768,38.158C84.02,38.158 73.005,47.288 66.915,60.394L66.915,40.502L40.904,40.502L40.904,126.943C50.031,124.683 58.682,122.936 66.914,121.637L66.914,93.873L66.915,93.873ZM257.079,40.501L231.295,40.501L200.366,129.312L170.841,40.501L143.42,40.501L174.776,130.505C190.012,135.373 204.537,141.029 219.659,146.071L257.079,40.501ZM264.118,0L290.593,0L290.593,23.172L264.118,23.172L264.118,0ZM290.355,40.501L264.345,40.501L264.345,157.386C272.56,158.661 281.187,159.5 290.355,159.768L290.355,40.501ZM354.78,38.159C323.371,38.159 305.563,52.438 303.688,76.315L328.064,76.315C328.531,64.383 337.436,57.587 353.368,57.587C369.299,57.587 373.985,64.607 373.985,75.378L373.985,86.382C370.707,86.145 366.258,85.912 362.507,85.912C318.683,85.912 300.41,100.892 300.41,127.349C300.41,143.334 309.395,154.53 324.607,158.154C336.269,156.764 348.789,154.478 362.347,151.093C370.049,149.17 377.69,147.011 385.259,144.619C390.2,143.071 395.114,141.44 400,139.728L400,75.378C399.998,54.078 389.45,38.159 354.78,38.159ZM373.983,111.191C373.983,128.987 360.629,139.519 344.458,139.519C333.445,139.519 327.122,133.668 327.122,123.367C327.122,108.854 339.541,102.996 363.212,102.996C366.962,102.996 370.705,102.996 373.987,103.233L373.987,111.191L373.983,111.191Z" style="fill:rgb(5,24,33);fill-rule:nonzero;"/>
                </g>
            </g>
        </g>
    </g>
</svg>
