<?xml version="1.0" encoding="UTF-8" standalone="no"?>
<!DOCTYPE svg PUBLIC "-//W3C//DTD SVG 1.1//EN" "http://www.w3.org/Graphics/SVG/1.1/DTD/svg11.dtd">
<svg width="100%" height="100%" viewBox="0 0 572 100" version="1.1" xmlns="http://www.w3.org/2000/svg" xmlns:xlink="http://www.w3.org/1999/xlink" xml:space="preserve" xmlns:serif="http://www.serif.com/" style="fill-rule:evenodd;clip-rule:evenodd;stroke-linejoin:round;stroke-miterlimit:2;">
    <g transform="matrix(1,0,0,1,-8650,-1869)">
        <g transform="matrix(2.43508,0,0,2.45218,-12413.4,-2716.17)">
            <rect id="logo-jobvalley" x="8650" y="1869.83" width="234.9" height="40.78" style="fill:none;"/>
            <clipPath id="_clip1">
                <rect id="logo-jobvalley1" serif:id="logo-jobvalley" x="8650" y="1869.83" width="234.9" height="40.78"/>
            </clipPath>
            <g clip-path="url(#_clip1)">
                <g id="logo-jobvalley2" serif:id="logo-jobvalley" transform="matrix(0.410664,0,0,0.4078,5097.75,1107.66)">
                    <path d="M8650.49,1883.15C8649.05,1880.08 8650.9,1877.61 8654.62,1877.63L8671.24,1877.63C8674.91,1877.63 8679.07,1880.11 8680.48,1883.17L8692.23,1908.58C8692.3,1908.73 8692.33,1908.87 8692.38,1909.02C8692.45,1909.14 8692.52,1909.27 8692.57,1909.39C8702.25,1930.33 8706.8,1952.74 8692.59,1959.41C8690.67,1960.32 8687.66,1960.76 8685.83,1959.9L8650.49,1883.15ZM8734.32,1883.15L8717.77,1918.88C8715.95,1919.74 8712.93,1919.29 8711.01,1918.36C8698.7,1912.58 8697.78,1898.99 8703.1,1880.77C8703.32,1879.42 8704.27,1878.56 8705,1878.17C8706.41,1877.41 8707.87,1877.61 8710.72,1877.61L8730.2,1877.61C8733.88,1877.63 8735.73,1880.11 8734.32,1883.15ZM8806.78,1899.41C8812.28,1893.99 8819.04,1891.27 8827.12,1891.32C8835.27,1891.32 8842.06,1894.01 8847.51,1899.38C8852.96,1904.75 8855.68,1911.62 8855.68,1919.98C8855.68,1928.34 8852.96,1935.23 8847.51,1940.65C8842.06,1946.07 8835.27,1948.77 8827.12,1948.77C8819.04,1948.77 8812.26,1946.02 8806.78,1940.58C8801.31,1935.11 8798.56,1928.25 8798.56,1919.96C8798.56,1911.67 8801.31,1904.83 8806.78,1899.41ZM8818.58,1929.94C8820.97,1932.29 8823.81,1933.47 8827.12,1933.47C8830.53,1933.47 8833.4,1932.32 8835.73,1929.99C8838.09,1927.66 8839.26,1924.32 8839.26,1919.96C8839.26,1915.59 8838.07,1912.26 8835.73,1909.98C8833.37,1907.69 8830.5,1906.54 8827.12,1906.54C8823.81,1906.54 8820.97,1907.69 8818.58,1910.03C8816.2,1912.36 8815.01,1915.66 8815.01,1919.96C8815.01,1924.25 8816.2,1927.58 8818.58,1929.94ZM8963.91,1892.84L8981.2,1892.84L8960.77,1947.03L8944.2,1947.03L8922.14,1892.84L8940,1892.84L8952.43,1926.53L8963.91,1892.84ZM9132.76,1934.62C9138.33,1934.62 9141.93,1932.24 9143.53,1927.53L9157.28,1931.46C9155.92,1936.48 9153.07,1940.6 9148.74,1943.84C9144.41,1947.08 9139.01,1948.7 9132.51,1948.7C9124.73,1948.7 9118.11,1946.07 9112.67,1940.85C9107.22,1935.63 9104.49,1928.61 9104.49,1919.81C9104.49,1911.37 9107.14,1904.48 9112.45,1899.19C9117.75,1893.87 9124.02,1891.22 9131.32,1891.22C9139.69,1891.22 9146.28,1893.67 9151.08,1898.57C9155.87,1903.48 9158.28,1910.3 9158.28,1919.03C9158.28,1921.8 9158.18,1923.49 9157.96,1924.15L9120.52,1924.15C9120.67,1927.14 9121.93,1929.62 9124.32,1931.63C9126.7,1933.62 9129.52,1934.62 9132.76,1934.62ZM9124,1907.13C9122.13,1909.02 9121.08,1911.13 9120.86,1913.43L9142.39,1913.43C9142.25,1910.98 9141.3,1908.82 9139.52,1907.01C9137.75,1905.19 9135.09,1904.29 9131.57,1904.29C9128.4,1904.29 9125.87,1905.24 9124,1907.13ZM9067.34,1947.03L9051.29,1947.03L9051.29,1889.28C9051.39,1880.43 9058.54,1873.27 9067.34,1873.27L9067.34,1947.03ZM8921.17,1919.93C8921.17,1928.29 8918.44,1935.18 8912.99,1940.63C8907.54,1946.05 8900.76,1948.75 8892.61,1948.75C8884.53,1948.75 8877.74,1946 8872.27,1940.56C8866.87,1935.16 8864.15,1928.39 8864.07,1920.23L8864.05,1920.23L8864.05,1889.28C8864.17,1880.43 8871.3,1873.29 8880.1,1873.29L8880.1,1893.91C8883.85,1892.17 8888.01,1891.27 8892.61,1891.27C8900.76,1891.27 8907.54,1893.96 8912.99,1899.33C8918.44,1904.7 8921.17,1911.57 8921.17,1919.93ZM8904.72,1919.93C8904.72,1915.57 8903.56,1912.23 8901.22,1909.93C8898.86,1907.65 8895.99,1906.49 8892.61,1906.49C8889.3,1906.49 8886.45,1907.65 8884.07,1909.98C8881.68,1912.31 8880.49,1915.62 8880.49,1919.91C8880.49,1924.2 8881.68,1927.53 8884.07,1929.89C8886.43,1932.27 8889.3,1933.44 8892.61,1933.44C8896.01,1933.44 8898.88,1932.29 8901.22,1929.96C8903.56,1927.63 8904.72,1924.3 8904.72,1919.93ZM8790.07,1950.76C8790.07,1956.2 8788.49,1960.61 8785.35,1963.97C8782.17,1967.33 8777.91,1969 8772.56,1969C8768.91,1969 8765.92,1968.49 8763.56,1967.48L8763.56,1953.89C8765.06,1954.31 8766.67,1954.53 8768.37,1954.53C8772,1954.53 8773.82,1952.72 8773.82,1949.04L8773.82,1907.28L8773.85,1907.28C8774.21,1898.35 8781.34,1891.22 8790.07,1891.22L8790.07,1950.76ZM8781.83,1888.18C8779.27,1888.18 8777.06,1887.24 8775.18,1885.38C8773.34,1883.52 8772.41,1881.26 8772.41,1878.59C8772.41,1875.94 8773.34,1873.66 8775.18,1871.8C8777.03,1869.93 8779.25,1869 8781.83,1869C8784.55,1869 8786.84,1869.93 8788.68,1871.8C8790.53,1873.66 8791.46,1875.94 8791.46,1878.59C8791.46,1881.24 8790.51,1883.52 8788.61,1885.38C8786.74,1887.24 8784.45,1888.18 8781.83,1888.18ZM9040,1917.16L9040.12,1919.91L9040.12,1947L9027.3,1947L9027.38,1942.98C9026.01,1944.99 9023.68,1946.29 9023.68,1946.29C9020.03,1947.91 9016.02,1948.75 9011.56,1948.75C9003.49,1948.75 8996.7,1946 8991.23,1940.56C8985.75,1935.09 8983.01,1928.22 8983.01,1919.93C8983.01,1911.64 8985.75,1904.8 8991.23,1899.38C8996.7,1893.96 9003.49,1891.27 9011.56,1891.27C9019.71,1891.27 9026.5,1893.96 9031.95,1899.33C9036.77,1904.12 9039.44,1910.05 9040,1917.16ZM9020.15,1909.98C9017.82,1907.69 9014.94,1906.54 9011.54,1906.49C9008.23,1906.49 9005.39,1907.65 9003,1909.98C9000.62,1912.31 8999.43,1915.62 8999.43,1919.91C8999.43,1924.2 9000.62,1927.53 9003,1929.89C9005.36,1932.27 9008.23,1933.44 9011.54,1933.44C9014.94,1933.44 9017.82,1932.29 9020.15,1929.96C9022.46,1927.66 9023.65,1924.35 9023.65,1920.01L9023.65,1919.88C9023.65,1915.57 9022.49,1912.26 9020.15,1909.98ZM9221.43,1892.84L9187.98,1968.66L9170.66,1968.66L9182.9,1940.51L9159.88,1892.84L9178.3,1892.84L9191.75,1922.63L9203.99,1892.84L9221.43,1892.84ZM9094.59,1947.03L9078.53,1947.03L9078.53,1889.28C9078.63,1880.43 9085.78,1873.27 9094.59,1873.27L9094.59,1947.03Z" style="fill:rgb(5,24,33);"/>
                </g>
            </g>
        </g>
    </g>
</svg>
