<?xml version="1.0" encoding="UTF-8" standalone="no"?>
<!DOCTYPE svg PUBLIC "-//W3C//DTD SVG 1.1//EN" "http://www.w3.org/Graphics/SVG/1.1/DTD/svg11.dtd">
<svg width="100%" height="100%" viewBox="0 0 385 100" version="1.1" xmlns="http://www.w3.org/2000/svg" xmlns:xlink="http://www.w3.org/1999/xlink" xml:space="preserve" xmlns:serif="http://www.serif.com/" style="fill-rule:evenodd;clip-rule:evenodd;stroke-linejoin:round;stroke-miterlimit:2;">
    <g transform="matrix(1,0,0,1,-8650,-1426)">
        <g transform="matrix(0.9625,0,0,0.964129,724.333,-2797.81)">
            <rect id="logo-robole" x="8234.46" y="4380.96" width="400" height="103.721" style="fill:none;"/>
            <clipPath id="_clip1">
                <rect id="logo-robole1" serif:id="logo-robole" x="8234.46" y="4380.96" width="400" height="103.721"/>
            </clipPath>
            <g clip-path="url(#_clip1)">
                <g id="logo-robole2" serif:id="logo-robole" transform="matrix(0.204044,0,0,0.204248,8230.21,4379.56)">
                    <path d="M321.556,352.641C321.556,270.846 292.693,182.352 170.678,182.652C42.375,182.967 21.5,293.86 20.82,317.487L20.82,514.65L99.534,514.65L100.117,351.878C100.117,351.878 86.539,257.891 170.879,257.891C255.218,257.891 241.065,353.272 241.065,353.272L321.556,352.641ZM1586.91,6.834L1507.67,6.834L1507.67,514.65L1586.91,514.65L1586.91,6.834ZM527.487,175.365C630.48,175.365 697.727,251.379 697.727,345.007C697.727,438.636 632.739,514.65 527.487,514.65C422.235,514.65 357.247,438.636 357.247,345.007C357.247,251.379 424.495,175.365 527.487,175.365ZM1287.98,175.365C1390.97,175.365 1458.22,251.379 1458.22,345.007C1458.22,438.636 1393.23,514.65 1287.98,514.65C1182.73,514.65 1117.74,438.636 1117.74,345.007C1117.74,251.379 1184.99,175.365 1287.98,175.365ZM1888.76,398.624L1965.19,423.757C1939.55,478.509 1882.89,514.65 1808.98,514.65C1703.73,514.65 1638.74,438.636 1638.74,345.007C1638.74,251.379 1705.99,175.365 1808.98,175.365C1911.97,175.365 1979.22,251.379 1979.22,345.007C1979.22,355.344 1978.83,365.469 1977.28,375.286L1721.57,373.626C1731.85,412.326 1763.34,440.427 1808.98,440.427C1847.51,440.427 1873.82,425.723 1888.76,398.624ZM817.966,209.853C840.223,192.162 878.748,175.222 914.085,175.365C1012.3,175.761 1080.33,251.379 1080.33,345.007C1080.33,438.636 1015.34,514.65 910.085,514.65C811.737,514.65 748.544,448.282 740.677,363.19L740.631,6.834L817.966,6.834L817.966,209.853ZM527.487,249.588C582.576,249.588 618.546,292.344 618.546,345.007C618.546,397.671 583.785,440.427 527.487,440.427C471.19,440.427 436.428,397.671 436.428,345.007C436.428,292.344 472.398,249.588 527.487,249.588ZM1287.98,249.588C1343.07,249.588 1379.04,292.344 1379.04,345.007C1379.04,397.671 1344.28,440.427 1287.98,440.427C1231.68,440.427 1196.92,397.671 1196.92,345.007C1196.92,292.344 1232.89,249.588 1287.98,249.588ZM910.085,249.588C965.174,249.588 1001.14,292.344 1001.14,345.007C1001.14,397.671 966.382,440.427 910.085,440.427C853.787,440.427 819.026,397.671 819.026,345.007C819.026,292.344 854.996,249.588 910.085,249.588ZM1895.04,312.184L1722.92,312.184C1734.59,275.667 1765.96,249.588 1808.98,249.588C1852.01,249.588 1883.37,275.667 1895.04,312.184Z"/>
                </g>
            </g>
        </g>
    </g>
</svg>
