<?xml version="1.0" encoding="UTF-8" standalone="no"?>
<!DOCTYPE svg PUBLIC "-//W3C//DTD SVG 1.1//EN" "http://www.w3.org/Graphics/SVG/1.1/DTD/svg11.dtd">
<svg width="100%" height="100%" viewBox="0 0 201 101" version="1.1" xmlns="http://www.w3.org/2000/svg" xmlns:xlink="http://www.w3.org/1999/xlink" xml:space="preserve" xmlns:serif="http://www.serif.com/" style="fill-rule:evenodd;clip-rule:evenodd;stroke-linejoin:round;stroke-miterlimit:2;">
    <g transform="matrix(1,0,0,1,-11226,-1966)">
        <g id="logo-bmbf" transform="matrix(0.5,0,0,0.625,7138.3,-1041.85)">
            <rect x="8176.21" y="4814.05" width="400" height="160" style="fill:none;"/>
            <clipPath id="_clip1">
                <rect x="8176.21" y="4814.05" width="400" height="160"/>
            </clipPath>
            <g clip-path="url(#_clip1)">
                <g transform="matrix(2.61311,0,0,1.64053,-13264.8,-3138.77)">
                    <g transform="matrix(1.25561,0,0,-1.6,8176.21,4980.45)">
                        <path d="M67.748,80.117C67.748,79.831 67.712,79.582 67.641,79.367C67.57,79.153 67.472,78.969 67.349,78.814C67.226,78.659 67.084,78.534 66.921,78.439C66.758,78.344 66.59,78.273 66.415,78.225L66.415,78.201C66.629,78.161 66.83,78.086 67.016,77.975C67.203,77.864 67.365,77.725 67.504,77.559C67.643,77.392 67.754,77.196 67.837,76.97C67.921,76.743 67.962,76.495 67.962,76.226C67.962,75.9 67.907,75.603 67.796,75.333C67.685,75.064 67.512,74.829 67.278,74.631C67.044,74.433 66.748,74.278 66.391,74.167C66.034,74.056 65.61,74 65.118,74L63.44,74L63.44,82.211L65.023,82.211C65.507,82.211 65.921,82.162 66.266,82.063C66.612,81.964 66.895,81.823 67.117,81.64C67.339,81.458 67.5,81.238 67.599,80.98C67.698,80.722 67.748,80.434 67.748,80.117ZM66.701,80.081C66.701,80.462 66.566,80.775 66.296,81.021C66.027,81.267 65.602,81.39 65.023,81.39L64.475,81.39L64.475,78.558L65.011,78.558C65.566,78.558 65.987,78.693 66.272,78.963C66.558,79.232 66.701,79.605 66.701,80.081ZM66.856,76.297C66.856,76.741 66.711,77.092 66.421,77.35C66.132,77.608 65.717,77.737 65.178,77.737L64.476,77.737L64.476,74.857L65.118,74.857C65.729,74.857 66.171,74.978 66.445,75.22C66.719,75.462 66.856,75.821 66.856,76.297ZM73.234,74L72.353,74L72.353,74.643L72.33,74.643C72.306,74.595 72.254,74.526 72.175,74.435C72.096,74.343 71.994,74.256 71.871,74.173C71.748,74.09 71.6,74.016 71.425,73.953C71.251,73.889 71.056,73.858 70.842,73.858C70.588,73.858 70.36,73.895 70.158,73.971C69.956,74.046 69.783,74.167 69.64,74.334C69.497,74.5 69.388,74.716 69.313,74.982C69.238,75.248 69.2,75.575 69.2,75.964L69.2,79.712L70.164,79.712L70.164,76.035C70.164,75.559 70.241,75.22 70.396,75.018C70.551,74.816 70.79,74.714 71.116,74.714C71.393,74.714 71.627,74.784 71.818,74.923C72.008,75.062 72.159,75.198 72.27,75.333L72.27,79.712L73.234,79.712L73.234,74ZM77.827,74L77.827,77.678C77.827,78.161 77.746,78.509 77.583,78.719C77.421,78.929 77.173,79.034 76.84,79.034C76.554,79.034 76.316,78.963 76.126,78.82C75.935,78.677 75.785,78.538 75.673,78.403L75.673,74L74.71,74L74.71,79.712L75.59,79.712L75.59,79.07L75.614,79.07C75.638,79.117 75.689,79.187 75.769,79.278C75.848,79.369 75.951,79.457 76.078,79.54C76.205,79.623 76.356,79.696 76.53,79.76C76.705,79.823 76.903,79.855 77.125,79.855C77.379,79.855 77.609,79.817 77.815,79.742C78.022,79.667 78.196,79.546 78.339,79.379C78.482,79.213 78.593,78.996 78.672,78.731C78.752,78.465 78.791,78.138 78.791,77.749L78.791,74L77.827,74ZM79.969,76.773C79.969,77.352 80.045,77.836 80.195,78.225C80.346,78.614 80.541,78.927 80.779,79.165C81.017,79.403 81.286,79.572 81.588,79.671C81.889,79.77 82.191,79.82 82.492,79.82C82.675,79.82 82.833,79.806 82.968,79.778C83.103,79.75 83.214,79.716 83.301,79.677L83.301,82.414L84.265,82.521L84.265,74L83.385,74L83.385,74.607L83.361,74.607C83.337,74.56 83.293,74.494 83.23,74.411C83.166,74.328 83.079,74.244 82.968,74.161C82.857,74.078 82.718,74.006 82.552,73.947C82.385,73.887 82.191,73.858 81.969,73.858C81.699,73.858 81.443,73.911 81.201,74.018C80.959,74.125 80.747,74.296 80.564,74.53C80.382,74.764 80.237,75.066 80.13,75.434C80.023,75.803 79.969,76.25 79.969,76.773ZM82.23,74.714C82.381,74.714 82.516,74.734 82.635,74.774C82.754,74.814 82.857,74.863 82.944,74.923C83.032,74.982 83.105,75.044 83.165,75.107C83.224,75.171 83.27,75.226 83.301,75.274L83.301,78.796C83.214,78.852 83.113,78.899 82.998,78.939C82.883,78.979 82.738,78.998 82.564,78.998C82.341,78.998 82.133,78.961 81.939,78.885C81.744,78.81 81.576,78.685 81.433,78.51C81.29,78.336 81.177,78.11 81.094,77.832C81.011,77.555 80.969,77.213 80.969,76.809C80.969,76.412 81.003,76.081 81.07,75.815C81.138,75.549 81.231,75.335 81.35,75.173C81.469,75.01 81.604,74.893 81.754,74.822C81.905,74.75 82.064,74.714 82.23,74.714ZM89.406,77.785C89.406,77.539 89.398,77.327 89.382,77.148C89.366,76.97 89.351,76.813 89.335,76.678L86.419,76.678C86.451,76.004 86.596,75.508 86.854,75.19C87.111,74.873 87.482,74.714 87.966,74.714C88.133,74.714 88.283,74.734 88.418,74.774C88.553,74.814 88.67,74.861 88.769,74.917C88.869,74.972 88.952,75.028 89.019,75.083C89.087,75.139 89.136,75.182 89.168,75.214L89.525,74.536C89.485,74.496 89.426,74.439 89.347,74.363C89.267,74.288 89.16,74.213 89.025,74.137C88.89,74.062 88.724,73.996 88.525,73.941C88.327,73.885 88.093,73.858 87.823,73.858C87.466,73.858 87.143,73.917 86.854,74.036C86.564,74.155 86.318,74.34 86.116,74.59C85.913,74.839 85.757,75.157 85.646,75.542C85.535,75.926 85.479,76.388 85.479,76.928C85.479,77.436 85.537,77.874 85.652,78.243C85.767,78.612 85.923,78.915 86.122,79.153C86.32,79.391 86.55,79.568 86.812,79.683C87.074,79.798 87.355,79.855 87.657,79.855C88.204,79.855 88.633,79.683 88.942,79.338C89.251,78.993 89.406,78.475 89.406,77.785ZM87.597,79.07C87.256,79.07 86.982,78.927 86.776,78.641C86.57,78.356 86.451,77.943 86.419,77.404L88.502,77.404C88.51,77.444 88.516,77.501 88.519,77.576C88.523,77.652 88.525,77.733 88.525,77.82C88.525,78.217 88.446,78.524 88.287,78.743C88.129,78.961 87.899,79.07 87.597,79.07ZM93.155,78.558C93.091,78.629 92.976,78.727 92.809,78.85C92.643,78.973 92.425,79.034 92.155,79.034C91.901,79.034 91.707,78.975 91.572,78.856C91.437,78.737 91.37,78.594 91.37,78.427C91.37,78.213 91.431,78.037 91.554,77.898C91.677,77.759 91.865,77.61 92.119,77.451L92.476,77.237C92.865,77.007 93.17,76.759 93.393,76.494C93.615,76.228 93.726,75.885 93.726,75.464C93.726,75.012 93.569,74.631 93.256,74.322C92.942,74.012 92.492,73.858 91.905,73.858C91.675,73.858 91.473,73.881 91.298,73.929C91.124,73.977 90.971,74.032 90.84,74.096C90.709,74.159 90.6,74.229 90.513,74.304C90.425,74.379 90.354,74.449 90.299,74.512L90.763,75.274C90.81,75.226 90.868,75.171 90.935,75.107C91.003,75.044 91.084,74.982 91.179,74.923C91.274,74.863 91.381,74.814 91.5,74.774C91.619,74.734 91.758,74.714 91.917,74.714C92.203,74.714 92.421,74.778 92.571,74.905C92.722,75.032 92.798,75.186 92.798,75.369C92.798,75.504 92.78,75.621 92.744,75.72C92.708,75.819 92.655,75.908 92.583,75.988C92.512,76.067 92.425,76.142 92.322,76.214C92.218,76.285 92.099,76.365 91.965,76.452L91.608,76.678C91.251,76.908 90.971,77.15 90.769,77.404C90.566,77.658 90.465,77.983 90.465,78.38C90.465,78.594 90.507,78.79 90.59,78.969C90.673,79.147 90.79,79.302 90.941,79.433C91.092,79.564 91.268,79.667 91.471,79.742C91.673,79.818 91.889,79.855 92.119,79.855C92.341,79.855 92.532,79.833 92.69,79.79C92.849,79.746 92.986,79.691 93.101,79.623C93.216,79.556 93.311,79.488 93.387,79.421C93.462,79.353 93.523,79.296 93.571,79.248L93.155,78.558ZM97.855,74L97.855,77.678C97.855,78.146 97.788,78.483 97.653,78.689C97.518,78.895 97.3,78.998 96.998,78.998C96.84,78.998 96.699,78.979 96.576,78.939C96.453,78.899 96.344,78.85 96.249,78.79C96.153,78.731 96.07,78.665 95.999,78.594C95.927,78.522 95.868,78.459 95.82,78.403L95.82,74L94.856,74L94.856,79.712L95.737,79.712L95.737,79.07L95.761,79.07C95.8,79.133 95.86,79.211 95.939,79.302C96.018,79.393 96.118,79.48 96.237,79.564C96.356,79.647 96.494,79.716 96.653,79.772C96.812,79.827 96.99,79.855 97.189,79.855C97.839,79.855 98.299,79.601 98.569,79.094C98.625,79.173 98.7,79.258 98.795,79.349C98.89,79.441 99.001,79.524 99.128,79.599C99.255,79.675 99.398,79.736 99.557,79.784C99.715,79.831 99.89,79.855 100.08,79.855C101.239,79.855 101.818,79.181 101.818,77.832L101.818,74L100.854,74L100.854,77.677C100.854,78.146 100.771,78.483 100.604,78.689C100.437,78.895 100.191,78.998 99.866,78.998C99.596,78.998 99.372,78.933 99.194,78.802C99.015,78.671 98.874,78.546 98.771,78.427C98.787,78.34 98.799,78.247 98.807,78.147C98.815,78.048 98.819,77.943 98.819,77.832L98.819,74L97.855,74ZM104.222,74L103.258,74L103.258,79.712L104.222,79.712L104.222,74ZM103.746,81.093C103.547,81.093 103.389,81.156 103.27,81.283C103.151,81.41 103.091,81.577 103.091,81.783C103.091,81.981 103.151,82.144 103.27,82.271C103.389,82.398 103.547,82.461 103.746,82.461C103.936,82.461 104.091,82.398 104.21,82.271C104.329,82.144 104.388,81.981 104.388,81.783C104.388,81.577 104.329,81.41 104.21,81.283C104.091,81.156 103.936,81.093 103.746,81.093ZM108.815,74L108.815,77.678C108.815,78.161 108.734,78.509 108.571,78.719C108.408,78.929 108.16,79.034 107.827,79.034C107.542,79.034 107.304,78.963 107.113,78.82C106.923,78.677 106.772,78.538 106.661,78.403L106.661,74L105.697,74L105.697,79.712L106.578,79.712L106.578,79.07L106.602,79.07C106.625,79.117 106.677,79.187 106.756,79.278C106.836,79.369 106.939,79.457 107.066,79.54C107.193,79.623 107.343,79.696 107.518,79.76C107.692,79.823 107.891,79.855 108.113,79.855C108.367,79.855 108.597,79.817 108.803,79.742C109.009,79.667 109.184,79.546 109.327,79.379C109.469,79.213 109.581,78.996 109.66,78.731C109.739,78.465 109.779,78.138 109.779,77.749L109.779,74L108.815,74ZM112.183,74L111.219,74L111.219,79.712L112.183,79.712L112.183,74ZM111.707,81.093C111.508,81.093 111.35,81.156 111.231,81.283C111.112,81.41 111.052,81.577 111.052,81.783C111.052,81.981 111.112,82.144 111.231,82.271C111.35,82.398 111.508,82.461 111.707,82.461C111.897,82.461 112.052,82.398 112.171,82.271C112.29,82.144 112.349,81.981 112.349,81.783C112.349,81.577 112.29,81.41 112.171,81.283C112.052,81.156 111.897,81.093 111.707,81.093ZM116.122,78.558C116.058,78.629 115.943,78.727 115.776,78.85C115.61,78.973 115.392,79.034 115.122,79.034C114.868,79.034 114.674,78.975 114.539,78.856C114.404,78.737 114.337,78.594 114.337,78.427C114.337,78.213 114.398,78.037 114.521,77.898C114.644,77.759 114.832,77.61 115.086,77.451L115.443,77.237C115.832,77.007 116.137,76.759 116.36,76.494C116.582,76.228 116.693,75.885 116.693,75.464C116.693,75.012 116.536,74.631 116.223,74.322C115.909,74.012 115.459,73.858 114.872,73.858C114.642,73.858 114.44,73.881 114.265,73.929C114.091,73.977 113.938,74.032 113.807,74.096C113.676,74.159 113.567,74.229 113.48,74.304C113.392,74.379 113.321,74.449 113.266,74.512L113.73,75.274C113.777,75.226 113.835,75.171 113.902,75.107C113.97,75.044 114.051,74.982 114.146,74.923C114.241,74.863 114.348,74.814 114.467,74.774C114.586,74.734 114.725,74.714 114.884,74.714C115.17,74.714 115.388,74.778 115.538,74.905C115.689,75.032 115.765,75.186 115.765,75.369C115.765,75.504 115.747,75.621 115.711,75.72C115.675,75.819 115.622,75.908 115.55,75.988C115.479,76.067 115.392,76.142 115.289,76.214C115.185,76.285 115.066,76.365 114.932,76.452L114.575,76.678C114.218,76.908 113.938,77.15 113.736,77.404C113.533,77.658 113.432,77.983 113.432,78.38C113.432,78.594 113.474,78.79 113.557,78.969C113.64,79.147 113.757,79.302 113.908,79.433C114.059,79.564 114.235,79.667 114.438,79.742C114.64,79.818 114.856,79.855 115.086,79.855C115.308,79.855 115.499,79.833 115.657,79.79C115.816,79.746 115.953,79.691 116.068,79.623C116.183,79.556 116.278,79.488 116.354,79.421C116.429,79.353 116.49,79.296 116.538,79.248L116.122,78.558ZM120.263,78.927L119.013,78.927L119.013,75.762C119.013,75.357 119.065,75.081 119.168,74.935C119.271,74.788 119.446,74.714 119.692,74.714C119.834,74.714 119.957,74.734 120.06,74.774C120.164,74.814 120.239,74.849 120.287,74.881L120.417,74.107C120.378,74.076 120.283,74.026 120.132,73.959C119.981,73.891 119.779,73.858 119.525,73.858C119.033,73.858 118.664,73.994 118.418,74.268C118.172,74.542 118.049,74.996 118.049,75.631L118.049,78.927L117.359,78.927L117.359,79.57L118.049,79.712L118.156,81.307L119.013,81.307L119.013,79.712L120.382,79.712L120.263,78.927ZM124.939,77.785C124.939,77.539 124.932,77.327 124.916,77.148C124.9,76.97 124.884,76.813 124.868,76.678L121.953,76.678C121.984,76.004 122.129,75.508 122.387,75.19C122.645,74.873 123.016,74.714 123.5,74.714C123.666,74.714 123.817,74.734 123.952,74.774C124.087,74.814 124.204,74.861 124.303,74.917C124.402,74.972 124.485,75.028 124.553,75.083C124.62,75.139 124.67,75.182 124.701,75.214L125.058,74.536C125.019,74.496 124.959,74.439 124.88,74.363C124.801,74.288 124.694,74.213 124.559,74.137C124.424,74.062 124.257,73.996 124.059,73.941C123.861,73.885 123.626,73.858 123.357,73.858C123,73.858 122.676,73.917 122.387,74.036C122.097,74.155 121.851,74.34 121.649,74.59C121.447,74.839 121.29,75.157 121.179,75.542C121.068,75.926 121.012,76.388 121.012,76.928C121.012,77.436 121.07,77.874 121.185,78.243C121.3,78.612 121.457,78.915 121.655,79.153C121.853,79.391 122.083,79.568 122.345,79.683C122.607,79.798 122.889,79.855 123.19,79.855C123.738,79.855 124.166,79.683 124.475,79.338C124.785,78.993 124.939,78.475 124.939,77.785ZM123.131,79.07C122.79,79.07 122.516,78.927 122.31,78.641C122.103,78.356 121.984,77.943 121.953,77.404L124.035,77.404C124.043,77.444 124.049,77.501 124.053,77.576C124.057,77.652 124.059,77.733 124.059,77.82C124.059,78.217 123.979,78.524 123.821,78.743C123.662,78.961 123.432,79.07 123.131,79.07ZM128.736,78.868C128.712,78.883 128.66,78.903 128.581,78.927C128.502,78.951 128.394,78.963 128.26,78.963C127.958,78.963 127.722,78.881 127.552,78.719C127.381,78.556 127.26,78.38 127.189,78.189L127.189,74L126.225,74L126.225,79.712L127.105,79.712L127.105,78.939L127.129,78.939C127.169,79.05 127.22,79.159 127.284,79.266C127.347,79.373 127.427,79.469 127.522,79.552C127.617,79.635 127.73,79.701 127.861,79.748C127.992,79.796 128.148,79.82 128.331,79.82C128.466,79.82 128.575,79.808 128.658,79.784C128.742,79.76 128.807,79.74 128.855,79.724L128.736,78.867ZM130.651,74L129.688,74L129.688,79.712L130.651,79.712L130.651,74ZM130.175,81.093C129.977,81.093 129.818,81.156 129.699,81.283C129.58,81.41 129.521,81.577 129.521,81.783C129.521,81.981 129.58,82.144 129.699,82.271C129.818,82.398 129.977,82.461 130.175,82.461C130.366,82.461 130.521,82.398 130.64,82.271C130.759,82.144 130.818,81.981 130.818,81.783C130.818,81.577 130.759,81.41 130.64,81.283C130.521,81.156 130.366,81.093 130.175,81.093ZM136.125,74L135.245,74L135.245,74.643L135.221,74.643C135.197,74.595 135.146,74.526 135.066,74.435C134.987,74.344 134.886,74.256 134.763,74.173C134.64,74.09 134.491,74.016 134.317,73.953C134.142,73.889 133.948,73.858 133.734,73.858C133.48,73.858 133.252,73.895 133.049,73.971C132.847,74.046 132.674,74.167 132.532,74.334C132.389,74.5 132.28,74.716 132.204,74.982C132.129,75.248 132.091,75.575 132.091,75.964L132.091,79.712L133.055,79.712L133.055,76.035C133.055,75.559 133.133,75.22 133.287,75.018C133.442,74.816 133.682,74.714 134.007,74.714C134.285,74.714 134.519,74.784 134.709,74.923C134.9,75.062 135.05,75.198 135.162,75.333L135.162,79.712L136.125,79.712L136.125,74ZM140.6,74L140.6,77.678C140.6,78.146 140.532,78.483 140.397,78.689C140.263,78.895 140.044,78.998 139.743,78.998C139.584,78.998 139.443,78.979 139.321,78.939C139.198,78.899 139.088,78.85 138.993,78.79C138.898,78.731 138.815,78.665 138.743,78.594C138.672,78.522 138.612,78.459 138.565,78.403L138.565,74L137.601,74L137.601,79.712L138.482,79.712L138.482,79.07L138.505,79.07C138.545,79.133 138.605,79.211 138.684,79.302C138.763,79.393 138.862,79.48 138.981,79.564C139.1,79.647 139.239,79.716 139.398,79.772C139.557,79.827 139.735,79.855 139.933,79.855C140.584,79.855 141.044,79.601 141.314,79.094C141.369,79.173 141.445,79.258 141.54,79.349C141.635,79.441 141.746,79.524 141.873,79.599C142,79.675 142.143,79.736 142.302,79.784C142.46,79.831 142.635,79.855 142.825,79.855C143.983,79.855 144.563,79.181 144.563,77.832L144.563,74L143.599,74L143.599,77.677C143.599,78.146 143.515,78.483 143.349,78.689C143.182,78.895 142.936,78.998 142.611,78.998C142.341,78.998 142.117,78.933 141.939,78.802C141.76,78.671 141.619,78.546 141.516,78.427C141.532,78.34 141.544,78.247 141.552,78.147C141.56,78.048 141.564,77.943 141.564,77.832L141.564,74L140.6,74ZM65.642,66.927L64.476,66.927L64.476,62L63.512,62L63.512,66.927L62.821,66.927L62.821,67.57L63.512,67.701L63.512,68.843C63.512,69.152 63.555,69.418 63.643,69.64C63.73,69.862 63.845,70.045 63.988,70.188C64.13,70.33 64.297,70.434 64.487,70.497C64.678,70.56 64.88,70.592 65.094,70.592C65.301,70.592 65.475,70.564 65.618,70.509C65.761,70.453 65.856,70.41 65.904,70.378L65.701,69.581C65.654,69.612 65.586,69.646 65.499,69.682C65.412,69.718 65.305,69.735 65.178,69.735C64.948,69.735 64.773,69.664 64.654,69.521C64.535,69.378 64.476,69.117 64.476,68.736L64.476,67.712L65.761,67.712L65.642,66.927ZM70.592,62L69.712,62L69.712,62.643L69.688,62.643C69.664,62.595 69.612,62.526 69.533,62.435C69.454,62.344 69.353,62.256 69.23,62.173C69.107,62.09 68.958,62.016 68.783,61.953C68.609,61.889 68.415,61.858 68.2,61.858C67.946,61.858 67.718,61.895 67.516,61.971C67.314,62.046 67.141,62.167 66.998,62.334C66.856,62.5 66.746,62.716 66.671,62.982C66.596,63.248 66.558,63.575 66.558,63.964L66.558,67.712L67.522,67.712L67.522,64.035C67.522,63.559 67.599,63.22 67.754,63.018C67.909,62.816 68.149,62.714 68.474,62.714C68.752,62.714 68.986,62.784 69.176,62.923C69.366,63.062 69.517,63.198 69.628,63.333L69.628,67.712L70.592,67.712L70.592,62ZM68.224,69.355C68.224,69.172 68.169,69.025 68.057,68.914C67.946,68.803 67.812,68.748 67.653,68.748C67.494,68.748 67.359,68.803 67.248,68.914C67.137,69.025 67.082,69.172 67.082,69.355C67.082,69.537 67.137,69.684 67.248,69.795C67.359,69.906 67.494,69.962 67.653,69.962C67.812,69.962 67.946,69.906 68.057,69.795C68.169,69.684 68.224,69.537 68.224,69.355ZM70.057,69.355C70.057,69.172 70.001,69.025 69.89,68.914C69.779,68.803 69.644,68.748 69.485,68.748C69.327,68.748 69.192,68.803 69.081,68.914C68.97,69.025 68.914,69.172 68.914,69.355C68.914,69.537 68.97,69.684 69.081,69.795C69.192,69.906 69.327,69.962 69.485,69.962C69.644,69.962 69.779,69.906 69.89,69.795C70.001,69.684 70.057,69.537 70.057,69.355ZM74.579,66.868C74.555,66.883 74.503,66.903 74.424,66.927C74.345,66.951 74.238,66.963 74.103,66.963C73.801,66.963 73.565,66.881 73.395,66.719C73.224,66.556 73.103,66.38 73.032,66.189L73.032,62L72.068,62L72.068,67.712L72.948,67.712L72.948,66.939L72.972,66.939C73.012,67.05 73.063,67.159 73.127,67.266C73.19,67.373 73.27,67.469 73.365,67.552C73.46,67.635 73.573,67.701 73.704,67.748C73.835,67.796 73.992,67.82 74.174,67.82C74.309,67.82 74.418,67.808 74.501,67.784C74.585,67.76 74.65,67.74 74.698,67.724L74.579,66.867ZM82.29,68.117C82.29,67.831 82.254,67.582 82.183,67.367C82.111,67.153 82.014,66.969 81.891,66.814C81.768,66.659 81.626,66.534 81.463,66.439C81.3,66.344 81.132,66.273 80.957,66.225L80.957,66.201C81.171,66.161 81.372,66.086 81.558,65.975C81.745,65.864 81.907,65.725 82.046,65.559C82.185,65.392 82.296,65.196 82.379,64.97C82.463,64.743 82.504,64.495 82.504,64.226C82.504,63.9 82.449,63.603 82.338,63.333C82.226,63.064 82.054,62.829 81.82,62.631C81.586,62.433 81.29,62.278 80.933,62.167C80.576,62.056 80.152,62 79.66,62L77.982,62L77.982,70.211L79.565,70.211C80.049,70.211 80.463,70.162 80.808,70.063C81.154,69.964 81.437,69.823 81.659,69.64C81.881,69.458 82.042,69.238 82.141,68.98C82.24,68.722 82.29,68.434 82.29,68.117ZM81.243,68.081C81.243,68.462 81.108,68.775 80.838,69.021C80.568,69.267 80.144,69.39 79.565,69.39L79.017,69.39L79.017,66.558L79.553,66.558C80.108,66.558 80.529,66.693 80.814,66.963C81.1,67.232 81.243,67.605 81.243,68.081ZM81.397,64.297C81.397,64.741 81.253,65.092 80.963,65.35C80.674,65.608 80.259,65.737 79.72,65.737L79.017,65.737L79.017,62.857L79.66,62.857C80.271,62.857 80.713,62.978 80.987,63.22C81.261,63.462 81.397,63.821 81.397,64.297ZM84.741,62L83.777,62L83.777,67.712L84.741,67.712L84.741,62ZM84.265,69.093C84.067,69.093 83.908,69.156 83.789,69.283C83.67,69.41 83.611,69.577 83.611,69.783C83.611,69.981 83.67,70.144 83.789,70.271C83.908,70.398 84.067,70.461 84.265,70.461C84.456,70.461 84.61,70.398 84.729,70.271C84.848,70.144 84.908,69.981 84.908,69.783C84.908,69.577 84.848,69.41 84.729,69.283C84.61,69.156 84.456,69.093 84.265,69.093ZM87.169,63.333C87.169,63.095 87.203,62.929 87.27,62.833C87.338,62.738 87.455,62.691 87.621,62.691C87.708,62.691 87.782,62.698 87.841,62.714C87.901,62.73 87.946,62.746 87.978,62.762L88.061,62.048C88.014,62.024 87.927,61.993 87.8,61.953C87.673,61.913 87.502,61.893 87.288,61.893C86.963,61.893 86.701,61.993 86.503,62.191C86.304,62.389 86.205,62.742 86.205,63.25L86.205,70.414L87.169,70.521L87.169,63.333ZM88.668,64.773C88.668,65.352 88.744,65.836 88.894,66.225C89.045,66.614 89.24,66.927 89.478,67.165C89.716,67.403 89.985,67.572 90.287,67.671C90.588,67.77 90.89,67.82 91.191,67.82C91.374,67.82 91.532,67.806 91.667,67.778C91.802,67.75 91.913,67.716 92,67.677L92,70.414L92.964,70.521L92.964,62L92.084,62L92.084,62.607L92.06,62.607C92.036,62.56 91.992,62.494 91.929,62.411C91.865,62.328 91.778,62.244 91.667,62.161C91.556,62.078 91.417,62.006 91.251,61.947C91.084,61.887 90.89,61.858 90.668,61.858C90.398,61.858 90.142,61.911 89.9,62.018C89.658,62.125 89.446,62.296 89.263,62.53C89.081,62.764 88.936,63.065 88.829,63.434C88.722,63.803 88.668,64.249 88.668,64.773ZM90.929,62.714C91.08,62.714 91.215,62.734 91.334,62.774C91.453,62.814 91.556,62.863 91.643,62.923C91.731,62.982 91.804,63.044 91.864,63.107C91.923,63.171 91.969,63.226 92,63.274L92,66.796C91.913,66.852 91.812,66.899 91.697,66.939C91.582,66.979 91.437,66.998 91.263,66.998C91.04,66.998 90.832,66.961 90.638,66.885C90.443,66.81 90.275,66.685 90.132,66.51C89.989,66.336 89.876,66.11 89.793,65.832C89.71,65.555 89.668,65.213 89.668,64.809C89.668,64.412 89.702,64.081 89.769,63.815C89.837,63.549 89.93,63.335 90.049,63.173C90.168,63.01 90.303,62.893 90.453,62.822C90.604,62.75 90.763,62.714 90.929,62.714ZM98.438,62L97.558,62L97.558,62.643L97.534,62.643C97.51,62.595 97.458,62.526 97.379,62.435C97.3,62.344 97.199,62.256 97.076,62.173C96.953,62.09 96.804,62.016 96.629,61.953C96.455,61.889 96.261,61.858 96.046,61.858C95.792,61.858 95.564,61.895 95.362,61.971C95.16,62.046 94.987,62.167 94.844,62.334C94.702,62.5 94.592,62.716 94.517,62.982C94.442,63.248 94.404,63.575 94.404,63.964L94.404,67.712L95.368,67.712L95.368,64.035C95.368,63.559 95.445,63.22 95.6,63.018C95.755,62.816 95.995,62.714 96.32,62.714C96.598,62.714 96.832,62.784 97.022,62.923C97.212,63.062 97.363,63.198 97.474,63.333L97.474,67.712L98.438,67.712L98.438,62ZM103.032,62L103.032,65.678C103.032,66.161 102.95,66.509 102.788,66.719C102.625,66.929 102.377,67.034 102.044,67.034C101.758,67.034 101.52,66.963 101.33,66.82C101.14,66.677 100.989,66.538 100.878,66.403L100.878,62L99.914,62L99.914,67.712L100.794,67.712L100.794,67.07L100.818,67.07C100.842,67.117 100.894,67.187 100.973,67.278C101.052,67.369 101.155,67.457 101.282,67.54C101.409,67.623 101.56,67.696 101.735,67.76C101.909,67.823 102.107,67.855 102.33,67.855C102.583,67.855 102.813,67.817 103.02,67.742C103.226,67.667 103.401,67.546 103.543,67.379C103.686,67.213 103.797,66.996 103.877,66.731C103.956,66.465 103.996,66.138 103.996,65.749L103.996,62L103.032,62ZM109.529,66.963L108.815,66.963C108.998,66.661 109.089,66.32 109.089,65.939C109.089,65.638 109.039,65.366 108.94,65.124C108.841,64.882 108.702,64.678 108.524,64.511C108.345,64.345 108.135,64.218 107.893,64.131C107.651,64.043 107.391,64 107.113,64L106.959,64C106.911,64 106.859,64.004 106.804,64.012C106.709,63.972 106.609,63.908 106.506,63.821C106.403,63.734 106.352,63.619 106.352,63.476C106.352,63.357 106.397,63.26 106.489,63.185C106.58,63.109 106.728,63.071 106.935,63.071L107.661,63.071C107.93,63.071 108.18,63.044 108.41,62.988C108.64,62.933 108.841,62.843 109.011,62.72C109.182,62.597 109.315,62.441 109.41,62.25C109.505,62.06 109.553,61.83 109.553,61.56C109.553,61.251 109.487,60.969 109.356,60.715C109.226,60.461 109.041,60.243 108.803,60.061C108.565,59.878 108.275,59.735 107.934,59.632C107.593,59.529 107.212,59.478 106.792,59.478C106.181,59.478 105.717,59.611 105.4,59.876C105.082,60.142 104.924,60.525 104.924,61.025C104.924,61.239 104.961,61.423 105.037,61.578C105.112,61.733 105.201,61.868 105.304,61.983C105.408,62.098 105.513,62.189 105.62,62.256C105.727,62.324 105.812,62.377 105.876,62.417L105.876,62.441C105.63,62.623 105.507,62.889 105.507,63.238C105.507,63.389 105.537,63.52 105.596,63.631C105.656,63.742 105.723,63.833 105.798,63.904C105.874,63.976 105.949,64.033 106.024,64.077C106.1,64.121 106.157,64.15 106.197,64.166L106.197,64.19C105.903,64.325 105.667,64.537 105.489,64.827C105.31,65.116 105.221,65.487 105.221,65.939C105.221,66.257 105.273,66.536 105.376,66.778C105.479,67.02 105.618,67.221 105.792,67.379C105.967,67.538 106.171,67.657 106.405,67.736C106.639,67.816 106.891,67.855 107.161,67.855C107.431,67.855 107.684,67.808 107.922,67.712L109.66,67.712L109.529,66.963ZM106.875,62.179C106.709,62.179 106.562,62.191 106.435,62.215C106.364,62.175 106.294,62.127 106.227,62.072C106.159,62.016 106.098,61.949 106.042,61.869C105.987,61.79 105.941,61.697 105.906,61.59C105.87,61.483 105.852,61.358 105.852,61.215C105.852,60.604 106.189,60.299 106.863,60.299C107.443,60.299 107.871,60.412 108.149,60.638C108.426,60.864 108.565,61.124 108.565,61.417C108.565,61.695 108.478,61.891 108.303,62.006C108.129,62.121 107.895,62.179 107.601,62.179L106.875,62.179ZM108.149,65.939C108.149,66.352 108.051,66.645 107.857,66.82C107.663,66.994 107.435,67.082 107.173,67.082C106.895,67.082 106.657,66.994 106.459,66.82C106.261,66.645 106.161,66.352 106.161,65.939C106.161,65.527 106.261,65.233 106.459,65.059C106.657,64.884 106.887,64.797 107.149,64.797C107.427,64.797 107.663,64.884 107.857,65.059C108.051,65.233 108.149,65.527 108.149,65.939ZM67.237,50L66.356,50L66.356,50.643L66.332,50.643C66.308,50.595 66.257,50.526 66.178,50.435C66.098,50.343 65.997,50.256 65.874,50.173C65.751,50.09 65.602,50.016 65.428,49.953C65.253,49.889 65.059,49.858 64.845,49.858C64.591,49.858 64.363,49.895 64.161,49.971C63.958,50.046 63.786,50.167 63.643,50.334C63.5,50.5 63.391,50.716 63.316,50.982C63.24,51.248 63.203,51.575 63.203,51.964L63.203,55.712L64.166,55.712L64.166,52.035C64.166,51.559 64.244,51.22 64.399,51.018C64.553,50.816 64.793,50.714 65.118,50.714C65.396,50.714 65.63,50.784 65.821,50.923C66.011,51.061 66.162,51.198 66.273,51.333L66.273,55.712L67.237,55.712L67.237,50ZM71.83,50L71.83,53.677C71.83,54.161 71.749,54.508 71.586,54.719C71.423,54.929 71.176,55.034 70.842,55.034C70.557,55.034 70.319,54.963 70.128,54.82C69.938,54.677 69.787,54.538 69.676,54.403L69.676,50L68.712,50L68.712,55.712L69.593,55.712L69.593,55.07L69.617,55.07C69.64,55.117 69.692,55.187 69.771,55.278C69.851,55.369 69.954,55.457 70.081,55.54C70.208,55.623 70.358,55.696 70.533,55.76C70.707,55.823 70.906,55.855 71.128,55.855C71.382,55.855 71.612,55.817 71.818,55.742C72.024,55.667 72.199,55.546 72.342,55.379C72.485,55.213 72.596,54.996 72.675,54.731C72.754,54.465 72.794,54.138 72.794,53.749L72.794,50L71.83,50ZM73.972,52.773C73.972,53.352 74.047,53.836 74.198,54.225C74.349,54.614 74.543,54.927 74.781,55.165C75.019,55.403 75.289,55.572 75.59,55.671C75.892,55.77 76.193,55.819 76.495,55.819C76.677,55.819 76.836,55.806 76.971,55.778C77.106,55.75 77.217,55.716 77.304,55.677L77.304,58.414L78.268,58.521L78.268,50L77.387,50L77.387,50.607L77.364,50.607C77.34,50.56 77.296,50.494 77.233,50.411C77.169,50.328 77.082,50.244 76.971,50.161C76.86,50.078 76.721,50.006 76.554,49.947C76.388,49.887 76.193,49.858 75.971,49.858C75.702,49.858 75.446,49.911 75.204,50.018C74.962,50.125 74.75,50.296 74.567,50.53C74.385,50.764 74.24,51.065 74.133,51.434C74.026,51.803 73.972,52.249 73.972,52.773ZM76.233,50.714C76.384,50.714 76.519,50.734 76.638,50.774C76.757,50.814 76.86,50.863 76.947,50.923C77.034,50.982 77.108,51.044 77.167,51.107C77.227,51.17 77.272,51.226 77.304,51.274L77.304,54.796C77.217,54.852 77.116,54.899 77.001,54.939C76.886,54.979 76.741,54.998 76.566,54.998C76.344,54.998 76.136,54.961 75.942,54.885C75.747,54.81 75.579,54.685 75.436,54.51C75.293,54.336 75.18,54.11 75.097,53.832C75.013,53.554 74.972,53.213 74.972,52.809C74.972,52.412 75.005,52.081 75.073,51.815C75.14,51.549 75.233,51.335 75.352,51.173C75.471,51.01 75.606,50.893 75.757,50.821C75.908,50.75 76.066,50.714 76.233,50.714ZM82.469,50L82.469,58.211L86.503,58.211L86.431,57.39L83.504,57.39L83.504,54.356L86.205,54.356L86.205,53.535L83.504,53.535L83.504,50L82.469,50ZM87.229,52.856C87.229,53.38 87.29,53.832 87.413,54.213C87.536,54.594 87.703,54.905 87.913,55.147C88.123,55.389 88.365,55.568 88.639,55.683C88.913,55.798 89.204,55.855 89.513,55.855C89.831,55.855 90.124,55.798 90.394,55.683C90.664,55.568 90.898,55.389 91.096,55.147C91.294,54.905 91.451,54.594 91.566,54.213C91.681,53.832 91.739,53.38 91.739,52.856C91.739,52.325 91.679,51.869 91.56,51.488C91.441,51.107 91.277,50.796 91.066,50.554C90.856,50.312 90.612,50.135 90.335,50.024C90.057,49.913 89.763,49.858 89.454,49.858C89.137,49.858 88.843,49.913 88.573,50.024C88.304,50.135 88.07,50.312 87.871,50.554C87.673,50.796 87.516,51.105 87.401,51.482C87.286,51.859 87.229,52.317 87.229,52.856ZM90.739,52.856C90.739,53.618 90.628,54.171 90.406,54.516C90.184,54.862 89.874,55.034 89.478,55.034C89.081,55.034 88.774,54.862 88.556,54.516C88.337,54.171 88.228,53.618 88.228,52.856C88.228,52.095 88.339,51.547 88.561,51.214C88.784,50.881 89.093,50.714 89.49,50.714C89.886,50.714 90.194,50.881 90.412,51.214C90.63,51.547 90.739,52.095 90.739,52.856ZM95.463,54.867C95.44,54.883 95.388,54.903 95.309,54.927C95.229,54.951 95.122,54.963 94.987,54.963C94.686,54.963 94.45,54.881 94.279,54.719C94.109,54.556 93.988,54.38 93.916,54.189L93.916,50L92.953,50L92.953,55.712L93.833,55.712L93.833,54.939L93.857,54.939C93.897,55.05 93.948,55.159 94.012,55.266C94.075,55.373 94.154,55.468 94.25,55.552C94.345,55.635 94.458,55.7 94.589,55.748C94.72,55.796 94.876,55.819 95.059,55.819C95.194,55.819 95.303,55.808 95.386,55.784C95.469,55.76 95.535,55.74 95.582,55.724L95.463,54.867ZM98.831,54.558C98.768,54.629 98.653,54.727 98.486,54.85C98.319,54.973 98.101,55.034 97.832,55.034C97.578,55.034 97.383,54.975 97.248,54.856C97.114,54.737 97.046,54.594 97.046,54.427C97.046,54.213 97.108,54.036 97.231,53.898C97.354,53.759 97.542,53.61 97.796,53.451L98.153,53.237C98.542,53.007 98.847,52.759 99.069,52.493C99.291,52.228 99.402,51.885 99.402,51.464C99.402,51.012 99.246,50.631 98.932,50.322C98.619,50.012 98.169,49.858 97.582,49.858C97.352,49.858 97.149,49.881 96.975,49.929C96.8,49.976 96.647,50.032 96.517,50.096C96.386,50.159 96.277,50.228 96.189,50.304C96.102,50.379 96.031,50.448 95.975,50.512L96.439,51.274C96.487,51.226 96.544,51.171 96.612,51.107C96.679,51.044 96.761,50.982 96.856,50.923C96.951,50.863 97.058,50.814 97.177,50.774C97.296,50.734 97.435,50.714 97.594,50.714C97.879,50.714 98.097,50.778 98.248,50.905C98.399,51.032 98.474,51.186 98.474,51.369C98.474,51.504 98.456,51.621 98.421,51.72C98.385,51.819 98.331,51.908 98.26,51.988C98.189,52.067 98.101,52.142 97.998,52.214C97.895,52.285 97.776,52.364 97.641,52.452L97.284,52.678C96.927,52.908 96.647,53.15 96.445,53.404C96.243,53.658 96.142,53.983 96.142,54.38C96.142,54.594 96.183,54.79 96.267,54.969C96.35,55.147 96.467,55.302 96.618,55.433C96.768,55.564 96.945,55.667 97.147,55.742C97.35,55.817 97.566,55.855 97.796,55.855C98.018,55.855 98.208,55.833 98.367,55.79C98.526,55.746 98.663,55.691 98.778,55.623C98.893,55.556 98.988,55.488 99.063,55.421C99.139,55.353 99.2,55.296 99.248,55.248L98.831,54.558ZM103.71,54.606C103.686,54.629 103.649,54.665 103.597,54.713C103.546,54.76 103.48,54.808 103.401,54.856C103.321,54.903 103.226,54.945 103.115,54.981C103.004,55.016 102.877,55.034 102.734,55.034C102.528,55.034 102.336,54.996 102.157,54.921C101.979,54.846 101.824,54.725 101.693,54.558C101.562,54.391 101.459,54.175 101.384,53.91C101.308,53.644 101.271,53.32 101.271,52.94C101.271,52.519 101.304,52.166 101.372,51.881C101.439,51.595 101.532,51.367 101.651,51.196C101.77,51.026 101.915,50.903 102.086,50.827C102.256,50.752 102.445,50.714 102.651,50.714C102.945,50.714 103.169,50.766 103.323,50.869C103.478,50.972 103.587,51.055 103.651,51.119L104.043,50.453C104.004,50.405 103.946,50.347 103.871,50.28C103.795,50.213 103.698,50.147 103.579,50.084C103.46,50.02 103.315,49.967 103.145,49.923C102.974,49.879 102.778,49.858 102.556,49.858C102.239,49.858 101.941,49.909 101.663,50.012C101.386,50.115 101.144,50.286 100.937,50.524C100.731,50.762 100.569,51.071 100.45,51.452C100.331,51.833 100.271,52.305 100.271,52.868C100.271,53.416 100.342,53.88 100.485,54.261C100.628,54.641 100.814,54.949 101.045,55.183C101.275,55.417 101.53,55.587 101.812,55.695C102.094,55.802 102.377,55.855 102.663,55.855C102.877,55.855 103.066,55.835 103.228,55.796C103.391,55.756 103.53,55.706 103.645,55.647C103.76,55.587 103.855,55.524 103.93,55.457C104.006,55.389 104.067,55.332 104.115,55.284L103.71,54.606ZM108.244,50L108.244,53.677C108.244,54.161 108.163,54.508 108,54.719C107.837,54.929 107.59,55.034 107.256,55.034C106.971,55.034 106.733,54.963 106.542,54.82C106.352,54.677 106.201,54.538 106.09,54.403L106.09,50L105.126,50L105.126,58.414L106.09,58.521L106.09,55.129L106.114,55.129C106.146,55.177 106.195,55.24 106.263,55.32C106.33,55.399 106.423,55.478 106.542,55.558C106.661,55.637 106.806,55.706 106.977,55.766C107.147,55.825 107.348,55.855 107.578,55.855C108.077,55.855 108.474,55.693 108.768,55.367C109.061,55.042 109.208,54.503 109.208,53.749L109.208,50L108.244,50ZM114.646,50L113.766,50L113.766,50.643L113.742,50.643C113.718,50.595 113.666,50.526 113.587,50.435C113.508,50.343 113.407,50.256 113.284,50.173C113.161,50.09 113.012,50.016 112.837,49.953C112.663,49.889 112.469,49.858 112.254,49.858C112,49.858 111.772,49.895 111.57,49.971C111.368,50.046 111.195,50.167 111.052,50.334C110.91,50.5 110.801,50.716 110.725,50.982C110.65,51.248 110.612,51.575 110.612,51.964L110.612,55.712L111.576,55.712L111.576,52.035C111.576,51.559 111.653,51.22 111.808,51.018C111.963,50.816 112.203,50.714 112.528,50.714C112.806,50.714 113.04,50.784 113.23,50.923C113.42,51.061 113.571,51.198 113.682,51.333L113.682,55.712L114.646,55.712L114.646,50ZM119.24,50L119.24,53.677C119.24,54.161 119.158,54.508 118.996,54.719C118.833,54.929 118.585,55.034 118.252,55.034C117.966,55.034 117.728,54.963 117.538,54.82C117.348,54.677 117.197,54.538 117.086,54.403L117.086,50L116.122,50L116.122,55.712L117.002,55.712L117.002,55.07L117.026,55.07C117.05,55.117 117.102,55.187 117.181,55.278C117.26,55.369 117.363,55.457 117.49,55.54C117.617,55.623 117.768,55.696 117.943,55.76C118.117,55.823 118.315,55.855 118.538,55.855C118.791,55.855 119.021,55.817 119.228,55.742C119.434,55.667 119.609,55.546 119.751,55.379C119.894,55.213 120.005,54.996 120.085,54.731C120.164,54.465 120.204,54.138 120.204,53.749L120.204,50L119.24,50ZM125.737,54.963L125.023,54.963C125.206,54.661 125.297,54.32 125.297,53.939C125.297,53.638 125.247,53.366 125.148,53.124C125.049,52.882 124.91,52.678 124.732,52.511C124.553,52.345 124.343,52.218 124.101,52.13C123.859,52.043 123.599,52 123.321,52L123.167,52C123.119,52 123.067,52.004 123.012,52.011C122.917,51.972 122.818,51.908 122.714,51.821C122.611,51.734 122.56,51.619 122.56,51.476C122.56,51.357 122.605,51.26 122.697,51.184C122.788,51.109 122.936,51.071 123.143,51.071L123.869,51.071C124.138,51.071 124.388,51.044 124.618,50.988C124.849,50.933 125.049,50.843 125.219,50.72C125.39,50.597 125.523,50.441 125.618,50.25C125.713,50.06 125.761,49.83 125.761,49.56C125.761,49.251 125.695,48.969 125.565,48.715C125.434,48.461 125.249,48.243 125.011,48.061C124.773,47.878 124.483,47.735 124.142,47.632C123.801,47.529 123.42,47.478 123,47.478C122.389,47.478 121.925,47.61 121.608,47.876C121.29,48.142 121.132,48.525 121.132,49.025C121.132,49.239 121.169,49.423 121.245,49.578C121.32,49.733 121.409,49.867 121.513,49.982C121.616,50.098 121.721,50.189 121.828,50.256C121.935,50.324 122.02,50.377 122.084,50.417L122.084,50.441C121.838,50.623 121.715,50.889 121.715,51.238C121.715,51.389 121.745,51.52 121.804,51.631C121.864,51.742 121.931,51.833 122.006,51.904C122.082,51.976 122.157,52.033 122.232,52.077C122.308,52.121 122.365,52.15 122.405,52.166L122.405,52.19C122.111,52.325 121.875,52.537 121.697,52.827C121.518,53.116 121.429,53.487 121.429,53.939C121.429,54.257 121.481,54.536 121.584,54.778C121.687,55.02 121.826,55.22 122,55.379C122.175,55.538 122.379,55.657 122.613,55.736C122.847,55.815 123.099,55.855 123.369,55.855C123.639,55.855 123.893,55.808 124.131,55.712L125.868,55.712L125.737,54.963ZM123.083,50.179C122.917,50.179 122.77,50.191 122.643,50.215C122.572,50.175 122.502,50.127 122.435,50.072C122.367,50.016 122.306,49.949 122.25,49.869C122.195,49.79 122.149,49.697 122.114,49.59C122.078,49.483 122.06,49.358 122.06,49.215C122.06,48.604 122.397,48.299 123.071,48.299C123.651,48.299 124.079,48.412 124.357,48.638C124.634,48.864 124.773,49.124 124.773,49.417C124.773,49.695 124.686,49.891 124.511,50.006C124.337,50.121 124.103,50.179 123.809,50.179L123.083,50.179ZM124.357,53.939C124.357,54.352 124.259,54.645 124.065,54.82C123.871,54.994 123.643,55.082 123.381,55.082C123.103,55.082 122.865,54.994 122.667,54.82C122.469,54.645 122.369,54.352 122.369,53.939C122.369,53.527 122.469,53.233 122.667,53.059C122.865,52.884 123.095,52.797 123.357,52.797C123.635,52.797 123.871,52.884 124.065,53.059C124.259,53.233 124.357,53.527 124.357,53.939Z" style="fill-rule:nonzero;"/>
                    </g>
                    <g transform="matrix(1.25561,0,0,1.6,8176.21,4814.05)">
                        <path d="M37.173,29.339C37.2,29.115 37.216,28.884 37.216,28.648C37.216,28.519 37.217,28.369 37.201,28.199C39.194,28.171 40.942,26.735 40.942,25.084C40.942,24.244 40.394,23.61 40.085,23.231C40.154,23.216 40.224,23.2 40.295,23.183C40.587,23.437 41.415,24.339 41.415,25.478C41.415,27.459 39.435,29.298 37.173,29.339M35.165,22.44C35.128,22.219 35.044,22.019 34.916,21.847C34.923,21.645 35.006,21.452 35.331,21.611C35.155,21.791 35.291,22.11 35.291,22.11C35.291,22.11 35.651,21.943 35.576,21.705C36.11,21.833 35.726,22.55 35.165,22.44M34.702,23.457C34.631,23.161 34.479,22.857 34.286,22.628C34.11,22.42 33.819,22.173 33.427,22.173C33.248,22.173 32.948,22.257 32.757,22.338C32.686,22.208 32.547,21.895 32.547,21.754C32.547,21.609 32.792,21.462 33.261,21.462C34.293,21.462 34.909,21.928 34.909,22.71C34.909,22.985 34.8,23.235 34.702,23.457M37.352,36.757C37.472,36.757 37.53,36.776 37.6,36.802C37.897,37.61 39.042,39.135 39.09,39.2L39.1,39.214L39.117,39.21C39.398,39.165 40.115,39.057 40.715,39.057L40.729,39.057C40.794,39.057 40.868,39.057 40.915,39.103C40.954,39.142 40.973,39.21 40.973,39.307C40.973,39.456 40.91,39.711 40.834,39.82C40.624,39.591 40.283,39.488 39.737,39.488C39.573,39.488 39.379,39.537 39.274,39.565L39.231,39.574L39.182,39.587L39.497,39.902C39.983,40.388 40.403,40.807 40.403,41.086C40.403,41.254 40.239,41.473 40.089,41.57C40.056,41.059 39.54,40.375 39.037,39.992L38.994,39.96L38.986,40.14C38.979,40.262 38.968,40.445 38.968,40.641C38.968,41.614 38.869,41.762 38.532,41.762C38.48,41.762 38.401,41.747 38.352,41.729C38.542,41.494 38.617,41.184 38.617,40.64L38.614,40.389L38.611,40.187C38.611,39.964 38.634,39.799 38.652,39.666L38.662,39.591L38.609,39.584C38.451,39.562 38.158,39.522 37.934,39.522C37.453,39.522 37.127,39.566 36.891,39.788C36.735,39.662 36.575,39.445 36.575,39.308C36.575,39.105 36.701,39.089 36.867,39.089C36.951,39.089 37.029,39.101 37.137,39.114C37.344,39.145 37.655,39.191 38.296,39.191L38.336,39.191L38.323,39.152C38.161,38.687 37.715,38.011 37,37.142C37.064,36.909 37.127,36.757 37.352,36.757M31.178,39.152L31.165,39.191L31.205,39.191C31.845,39.191 32.157,39.145 32.364,39.114C32.472,39.101 32.55,39.089 32.634,39.089C32.799,39.089 32.926,39.105 32.926,39.308C32.926,39.445 32.766,39.662 32.611,39.788C32.374,39.566 32.048,39.522 31.568,39.522C31.343,39.522 31.049,39.562 30.892,39.584L30.867,39.587L30.839,39.591L30.848,39.666C30.867,39.799 30.89,39.964 30.89,40.187L30.887,40.389L30.884,40.64C30.884,41.184 30.959,41.494 31.15,41.729C31.1,41.747 31.021,41.762 30.969,41.762C30.631,41.762 30.533,41.614 30.533,40.641C30.533,40.445 30.523,40.262 30.516,40.14L30.506,39.959L30.464,39.992C29.962,40.375 29.444,41.059 29.413,41.57C29.262,41.473 29.098,41.254 29.098,41.086C29.098,40.807 29.518,40.388 30.004,39.902L30.319,39.587L30.227,39.565C30.122,39.537 29.928,39.488 29.763,39.488C29.218,39.488 28.878,39.591 28.667,39.82C28.591,39.711 28.528,39.456 28.528,39.307C28.528,39.21 28.547,39.142 28.586,39.103C28.633,39.057 28.707,39.057 28.772,39.057L28.786,39.057C29.386,39.057 30.104,39.165 30.384,39.21L30.401,39.214L30.411,39.2C30.46,39.135 31.604,37.61 31.902,36.802C31.97,36.776 32.029,36.757 32.149,36.757C32.374,36.757 32.437,36.909 32.502,37.142C31.786,38.011 31.34,38.687 31.178,39.152M28.086,25.478C28.086,24.339 28.915,23.437 29.207,23.183C29.277,23.2 29.347,23.216 29.417,23.231C29.107,23.61 28.559,24.244 28.559,25.084C28.559,26.752 30.341,28.2 32.359,28.2C32.346,28.343 32.339,28.493 32.339,28.648C32.339,28.894 32.353,29.123 32.377,29.339C30.095,29.325 28.086,27.473 28.086,25.478M43.392,28.991C44.416,30.61 45.217,30.583 46.427,30.583C45.426,29.816 44.764,28.833 44.448,28.331L42.578,25.339C42.396,24.415 41.918,23.551 41.202,22.908C41.443,22.817 41.643,22.721 41.763,22.63C40.542,22.63 39.332,22.01 38.666,22.01C38.238,22.01 37.963,22.266 37.963,22.604C37.99,22.981 38.378,23.364 39.095,23.364C39.257,23.364 39.465,23.343 39.693,23.305C40.081,23.846 40.394,24.335 40.394,25.033C40.394,26.343 38.828,27.364 37.247,27.364C37.157,27.364 37.072,27.36 36.983,27.354C36.84,27.029 36.363,26.484 36.363,25.864C36.363,24.823 37.042,23.973 37.042,22.942C37.042,22.301 36.73,21.904 36.61,21.739C36.804,21.559 37.016,21.338 37.066,21.186C36.953,21.235 36.819,21.241 36.624,21.241C35.866,21.241 35.248,21.044 34.646,21.044C34.302,21.044 34.21,21.15 34.21,21.251C34.21,21.288 34.215,21.326 34.225,21.344C34.097,21.294 33.977,21.261 33.834,21.235C33.656,21.201 33.465,21.184 33.261,21.184C32.529,21.184 32.269,21.491 32.269,21.754C32.269,21.976 32.444,22.382 32.643,22.692C32.928,22.548 33.271,22.451 33.427,22.451C33.816,22.451 34.161,22.821 34.344,23.259C34.083,23.291 34.033,23.302 33.769,23.302C33.056,23.302 32.571,23.047 32.471,23.047C32.462,23.047 32.443,23.052 32.443,23.068C32.443,23.168 32.645,23.432 33.043,23.577C33.568,23.769 34.354,23.849 34.485,23.871C34.485,23.894 34.352,24.142 34.203,24.19C34.172,24.2 34.147,24.201 34.11,24.193C33.562,24.085 33.409,24.039 32.714,23.775C32.693,23.767 32.68,23.78 32.68,23.802C32.68,24.077 33.392,24.684 34.03,24.917C33.497,25.597 32.832,26.293 32.518,27.354C32.429,27.36 32.343,27.364 32.254,27.364C30.673,27.364 29.107,26.343 29.107,25.033C29.107,24.335 29.42,23.846 29.808,23.305C30.036,23.343 30.243,23.364 30.406,23.364C31.123,23.364 31.511,22.981 31.539,22.604C31.539,22.266 31.264,22.01 30.835,22.01C30.169,22.01 28.96,22.63 27.737,22.63C27.858,22.721 28.058,22.817 28.298,22.908C27.583,23.551 27.105,24.415 26.923,25.339L25.053,28.331C24.738,28.833 24.074,29.816 23.073,30.583C24.283,30.583 25.085,30.61 26.109,28.991L27.068,27.457C27.139,27.656 27.226,27.85 27.329,28.04L25.422,31.091C25.105,31.597 24.447,32.571 23.442,33.343C24.652,33.343 25.454,33.371 26.478,31.753L28.119,29.125C28.242,29.256 28.371,29.384 28.507,29.506L26.191,33.214C25.873,33.721 25.219,34.693 24.212,35.464C25.422,35.464 26.224,35.493 27.247,33.874L29.505,30.259C29.654,30.353 29.806,30.444 29.964,30.53L27.207,34.941C26.889,35.448 26.235,36.417 25.228,37.191C26.438,37.191 27.24,37.219 28.264,35.601L31.102,31.058C31.27,31.122 31.44,31.184 31.613,31.239L28.406,36.372C28.093,36.872 27.424,37.859 26.428,38.622C27.637,38.622 28.44,38.65 29.463,37.032L32.881,31.562C32.916,31.568 32.95,31.573 32.984,31.58C33.077,31.876 33.142,32.152 33.142,32.427C33.142,34.146 32.014,35.664 30.66,36.836C30.747,36.874 30.898,36.887 31.037,36.887C31.317,36.887 31.497,36.872 31.624,36.85C31.31,37.563 30.636,38.484 30.296,38.96C29.853,38.88 29.208,38.818 28.786,38.818C28.344,38.818 28.294,39.076 28.294,39.307C28.294,39.708 28.482,40.027 28.7,40.205C28.782,40 28.947,39.726 29.763,39.726C29.779,39.726 29.807,39.728 29.845,39.731C29.607,39.996 28.86,40.6 28.86,41.086C28.86,41.408 29.213,41.891 29.678,41.891C29.651,41.787 29.654,41.692 29.654,41.62C29.654,41.226 30.003,40.765 30.298,40.443C30.289,40.539 30.294,40.529 30.294,40.641C30.294,41.572 30.378,42 30.969,42C31.259,42 31.459,41.841 31.528,41.793C31.144,41.44 31.124,41.162 31.124,40.64C31.125,40.504 31.126,40.371 31.128,40.188C31.129,40.068 31.127,39.91 31.108,39.796C31.319,39.767 31.405,39.767 31.568,39.767C31.568,39.767 32.407,39.7 32.61,40.137C32.838,39.928 33.169,39.633 33.169,39.308C33.169,39.093 33.067,38.85 32.634,38.85C32.47,38.85 31.955,38.95 31.524,38.95C31.64,38.693 32.155,37.939 32.602,37.392C32.67,37.604 32.775,37.833 33.009,38.021C33.042,37.669 33.248,36.556 33.798,35.905C33.862,36.345 33.948,36.796 33.948,37.747C33.948,40.061 33.392,41.77 32.211,42.096C32.365,42.363 32.69,42.604 33.027,42.604C33.459,42.604 33.694,42.115 33.934,41.654C34.059,41.994 34.404,42.828 34.75,42.828C35.096,42.828 35.442,41.994 35.567,41.654C35.806,42.115 36.042,42.604 36.474,42.604C36.811,42.604 37.136,42.363 37.29,42.096C36.109,41.77 35.552,40.061 35.552,37.747C35.552,36.796 35.638,36.345 35.702,35.905C36.253,36.556 36.46,37.669 36.491,38.021C36.726,37.833 36.832,37.604 36.899,37.392C37.345,37.939 37.861,38.693 37.977,38.95C37.546,38.95 37.03,38.85 36.867,38.85C36.435,38.85 36.333,39.093 36.333,39.308C36.333,39.633 36.664,39.928 36.892,40.137C37.093,39.7 37.934,39.767 37.934,39.767C38.096,39.767 38.182,39.767 38.394,39.796C38.374,39.91 38.373,40.068 38.374,40.188C38.376,40.371 38.376,40.504 38.377,40.64C38.377,41.162 38.357,41.44 37.973,41.793C38.042,41.841 38.242,42 38.532,42C39.123,42 39.208,41.572 39.208,40.641C39.208,40.529 39.211,40.539 39.203,40.443C39.498,40.765 39.847,41.226 39.847,41.62C39.847,41.692 39.851,41.787 39.822,41.891C40.288,41.891 40.642,41.408 40.642,41.086C40.642,40.6 39.895,39.996 39.655,39.731C39.694,39.728 39.722,39.726 39.737,39.726C40.554,39.726 40.719,40 40.801,40.205C41.019,40.027 41.207,39.708 41.207,39.307C41.207,39.076 41.157,38.818 40.715,38.818C40.293,38.818 39.649,38.88 39.205,38.96C38.864,38.484 38.192,37.563 37.877,36.85C38.004,36.872 38.185,36.887 38.464,36.887C38.604,36.887 38.754,36.874 38.841,36.836C37.487,35.664 36.359,34.146 36.359,32.427C36.359,32.152 36.424,31.876 36.517,31.58C36.55,31.573 36.586,31.568 36.62,31.562L40.038,37.032C41.061,38.65 41.864,38.622 43.073,38.622C42.077,37.859 41.408,36.872 41.095,36.372L37.887,31.239C38.061,31.184 38.232,31.122 38.4,31.058L41.237,35.601C42.261,37.219 43.063,37.191 44.273,37.191C43.266,36.417 42.612,35.448 42.294,34.941L39.538,30.53C39.694,30.444 39.847,30.353 39.995,30.259L42.254,33.874C43.278,35.493 44.079,35.464 45.289,35.464C44.282,34.693 43.629,33.721 43.31,33.214L40.994,29.506C41.13,29.384 41.26,29.256 41.381,29.125L43.024,31.753C44.047,33.371 44.849,33.343 46.059,33.343C45.053,32.571 44.397,31.597 44.079,31.091L42.173,28.04C42.275,27.85 42.362,27.656 42.434,27.457L43.392,28.991Z" style="fill-rule:nonzero;"/>
                    </g>
                    <g transform="matrix(1.25561,0,0,1.6,8176.21,4814.05)">
                        <rect x="52.5" y="22" width="3.5" height="20" style="fill-rule:nonzero;"/>
                    </g>
                    <g transform="matrix(1.25561,0,0,1.6,8176.21,4814.05)">
                        <rect x="52.5" y="42" width="3.5" height="20" style="fill:rgb(255,0,0);fill-rule:nonzero;"/>
                    </g>
                    <g transform="matrix(1.25561,0,0,1.6,8176.21,4814.05)">
                        <rect x="52.5" y="62" width="3.5" height="20" style="fill:rgb(255,204,0);fill-rule:nonzero;"/>
                    </g>
                </g>
            </g>
        </g>
    </g>
</svg>
