<?xml version="1.0" encoding="UTF-8" standalone="no"?>
<!DOCTYPE svg PUBLIC "-//W3C//DTD SVG 1.1//EN" "http://www.w3.org/Graphics/SVG/1.1/DTD/svg11.dtd">
<svg width="100%" height="100%" viewBox="0 0 1920 184" version="1.1" xmlns="http://www.w3.org/2000/svg" xmlns:xlink="http://www.w3.org/1999/xlink" xml:space="preserve" xmlns:serif="http://www.serif.com/" style="fill-rule:evenodd;clip-rule:evenodd;stroke-linejoin:round;stroke-miterlimit:2;">
    <g transform="matrix(1,0,0,1,-2314,-1000)">
        <g transform="matrix(1,0,0,1.00058,2314,182.365)">
            <rect id="stage-waves" x="-0" y="817.164" width="1920" height="183.894" style="fill:none;"/>
            <clipPath id="_clip1">
                <rect id="stage-waves1" serif:id="stage-waves" x="-0" y="817.164" width="1920" height="183.894"/>
            </clipPath>
            <g clip-path="url(#_clip1)">
                <g id="stage-waves2" serif:id="stage-waves" transform="matrix(7.96385,0,0,11.7273,5480.96,697.353)">
                    <g transform="matrix(-0.125567,0,0,0.0852708,-187.453,-31.1546)">
                        <path d="M3988.11,577.129C3919.76,576.535 3849.7,487.095 3724.03,485.2C3571.89,482.907 3487.39,617.476 3311.19,610.682C3147.99,604.39 3006.39,484.009 2854.45,485.192C2702.5,486.376 2652.04,619.682 2506.33,619.682C2360.63,619.682 2268.15,466.672 2068.11,528.629L2068.11,669.065L3988.11,669.065L3988.11,577.129Z" style="fill:url(#_Linear2);"/>
                    </g>
                    <g transform="matrix(0.125567,0,0,0.0852708,-947.917,-31.1546)">
                        <path d="M3988.11,618.505C3946.42,618.505 3753.03,548.014 3627.36,546.119C3475.22,543.826 3372.18,623.489 3195.98,616.695C3032.78,610.402 2881.52,484.017 2729.58,485.2C2577.63,486.384 2553.27,554.139 2387.08,554.139C2241.38,554.139 2242.79,512.894 2068.11,512.894L2068.11,669.065L3988.11,669.065L3988.11,618.505Z" style="fill:url(#_Linear3);"/>
                    </g>
                    <g transform="matrix(0.125567,0,0,0.0852708,-947.917,-31.1546)">
                        <path d="M3988.11,532.336C3977.46,514.874 3745.36,615.165 3619.7,612.578C3465.26,609.398 3250.38,518.767 3061.46,513.255C2823.29,506.307 2657.92,601.92 2491.73,601.92C2346.02,601.92 2242.79,515.06 2068.11,515.06L2068.11,669.065L3988.11,669.065L3988.11,532.336Z" style="fill:rgb(6,25,35);"/>
                    </g>
                </g>
            </g>
        </g>
    </g>
    <defs>
        <linearGradient id="_Linear2" x1="0" y1="0" x2="1" y2="0" gradientUnits="userSpaceOnUse" gradientTransform="matrix(-1.1259e-14,183.873,183.873,1.1259e-14,2846.4,485.192)"><stop offset="0" style="stop-color:rgb(6,25,35);stop-opacity:0.27"/><stop offset="1" style="stop-color:rgb(6,25,35);stop-opacity:0"/></linearGradient>
        <linearGradient id="_Linear3" x1="0" y1="0" x2="1" y2="0" gradientUnits="userSpaceOnUse" gradientTransform="matrix(1.1259e-14,183.873,-183.873,1.1259e-14,2730.51,485.192)"><stop offset="0" style="stop-color:rgb(6,25,35);stop-opacity:0.54"/><stop offset="1" style="stop-color:rgb(6,25,35);stop-opacity:0"/></linearGradient>
    </defs>
</svg>
