<svg width="100%" height="100%" viewBox="0 0 60 60" aria-hidden="true" role="img">
    <g transform="matrix(1,0,0,1,-7841,-6256)">
        <g transform="matrix(1.22367,0,0,1,-1753.96,-0.473284)">
            <g transform="matrix(1.29259,0,0,1.5817,7824.29,6235.85)">
                <path
                    d="M16.51,35.21L16.5,21.375C16.5,20.438 16.868,19.775 17.603,19.263L22.456,15.81L25.506,13.64C26.621,12.845 27.676,12.845 28.804,13.604L36.291,18.658C36.564,18.858 36.741,18.824 36.991,18.634L44.027,13.614C44.703,13.139 45.427,12.902 46.257,13.116C47.077,13.33 47.491,13.876 47.491,14.73L47.5,42.8C47.5,43.5 47.25,44.034 46.705,44.437L43.608,46.657L38.483,50.287C38.068,50.572 37.569,50.773 37.083,50.917C36.525,51.071 36.003,50.893 35.517,50.561L27.747,45.305C27.487,45.127 27.332,45.139 27.083,45.317L19.988,50.371C19.288,50.869 18.541,51.107 17.688,50.869C16.905,50.655 16.502,50.086 16.502,49.269L16.502,35.21L16.51,35.21ZM27.425,17.14L27.413,40.37C27.413,40.607 27.508,40.726 27.698,40.845L36.358,46.682L36.69,46.884L36.69,46.481L36.702,23.749C36.702,23.464 36.595,23.309 36.37,23.156L27.768,17.354C27.685,17.294 27.568,17.234 27.424,17.14L27.425,17.14Z"
                    style="fill:currentColor;"></path>
            </g>
        </g>
    </g>
</svg>
