<?xml version="1.0" encoding="UTF-8" standalone="no"?>
<!DOCTYPE svg PUBLIC "-//W3C//DTD SVG 1.1//EN" "http://www.w3.org/Graphics/SVG/1.1/DTD/svg11.dtd">
<svg width="100%" height="100%" viewBox="0 0 531 101" version="1.1" xmlns="http://www.w3.org/2000/svg" xmlns:xlink="http://www.w3.org/1999/xlink" xml:space="preserve" xmlns:serif="http://www.serif.com/" style="fill-rule:evenodd;clip-rule:evenodd;stroke-linejoin:round;stroke-miterlimit:2;">
    <g transform="matrix(1,0,0,1,-11260,-2285)">
        <g id="logo-appocados" transform="matrix(1.32495,0,0,0.625,427.679,-723.763)">
            <rect x="8176.21" y="4814.05" width="400" height="160" style="fill:none;"/>
            <g id="logo-vibrations" serif:id="logo vibrations" transform="matrix(0.783428,0,0,1.66081,7944.57,2998.29)">
                <g transform="matrix(1,0,0,1,-1508.17,1031.94)">
                    <path d="M1892.98,125.135C1892.98,134.098 1884.97,152.161 1860.18,152.161C1835.39,152.161 1828.33,131.328 1828.33,125.209C1828.33,115.126 1835,102.482 1839.75,91.157C1846.41,75.275 1848.1,61.369 1860.18,61.369C1872.75,61.369 1875.07,74.742 1882.02,91.157C1886.52,101.774 1892.98,113.92 1892.98,125.135ZM1860.18,101.253C1852.3,101.253 1845.89,108.627 1845.89,117.711C1845.89,126.794 1852.3,134.168 1860.18,134.168C1868.06,134.168 1874.46,126.794 1874.46,117.711C1874.46,108.627 1868.06,101.253 1860.18,101.253Z"/>
                </g>
                <g transform="matrix(-0.866025,0.5,0.5,0.866025,91.1617,-24.3159)">
                    <g transform="matrix(0.511723,0,0,0.511723,-600.199,1076.52)">
                        <path d="M1977.66,119.523C1981.34,119.523 1991.4,127.867 1991.4,138.145C1991.4,148.423 1981.34,156.767 1977.66,156.767C1973.98,156.767 1983.99,148.423 1983.99,138.145C1983.99,127.867 1973.98,119.523 1977.66,119.523Z"/>
                    </g>
                    <g transform="matrix(0.683422,-5.55112e-17,5.55112e-17,0.683422,-949.159,1052.8)">
                        <path d="M1977.66,119.523C1981.34,119.523 1991.4,127.867 1991.4,138.145C1991.4,148.423 1981.34,156.767 1977.66,156.767C1973.98,156.767 1983.99,148.423 1983.99,138.145C1983.99,127.867 1973.98,119.523 1977.66,119.523Z"/>
                    </g>
                </g>
                <g transform="matrix(0.866025,-0.5,0.5,0.866025,-533.403,336.276)">
                    <g transform="matrix(0.683422,0,0,0.683422,-949.159,1052.8)">
                        <path d="M1977.66,119.523C1981.34,119.523 1991.4,127.867 1991.4,138.145C1991.4,148.423 1981.34,156.767 1977.66,156.767C1973.98,156.767 1983.99,148.423 1983.99,138.145C1983.99,127.867 1973.98,119.523 1977.66,119.523Z"/>
                    </g>
                    <g transform="matrix(0.511723,0,0,0.511723,-600.199,1076.52)">
                        <path d="M1977.66,119.523C1981.34,119.523 1991.4,127.867 1991.4,138.145C1991.4,148.423 1981.34,156.767 1977.66,156.767C1973.98,156.767 1983.99,148.423 1983.99,138.145C1983.99,127.867 1973.98,119.523 1977.66,119.523Z"/>
                    </g>
                </g>
            </g>
            <g transform="matrix(1.25986,0,0,2.6708,-5846.47,-1323.83)">
                <path d="M11231,2341.24C11229.2,2341.24 11227.6,2340.9 11226.2,2340.22C11224.8,2339.55 11223.7,2338.62 11222.9,2337.45C11222.1,2336.28 11221.8,2334.95 11221.8,2333.46C11221.8,2331.73 11222.2,2330.37 11223.1,2329.37C11224,2328.37 11225.4,2327.66 11227.4,2327.22C11229.4,2326.78 11232.1,2326.56 11235.4,2326.56L11238,2326.56L11238,2330.6L11235.4,2330.6C11234.1,2330.6 11233.1,2330.69 11232.3,2330.87C11231.5,2331.05 11230.9,2331.33 11230.5,2331.69C11230.1,2332.05 11229.9,2332.52 11229.9,2333.11C11229.9,2333.86 11230.2,2334.47 11230.7,2334.95C11231.2,2335.43 11232,2335.67 11233,2335.67C11233.8,2335.67 11234.5,2335.49 11235.1,2335.14C11235.7,2334.79 11236.2,2334.3 11236.6,2333.67C11237,2333.04 11237.2,2332.31 11237.2,2331.47L11237.2,2325.92C11237.2,2324.75 11236.9,2323.93 11236.3,2323.46C11235.7,2322.99 11234.7,2322.76 11233.3,2322.76C11232.5,2322.76 11231.6,2322.84 11230.7,2323.02C11229.7,2323.19 11228.6,2323.5 11227.4,2323.94C11226.6,2324.25 11225.8,2324.29 11225.2,2324.07C11224.6,2323.85 11224.1,2323.48 11223.8,2322.94C11223.5,2322.41 11223.3,2321.82 11223.3,2321.18C11223.3,2320.53 11223.6,2319.92 11223.9,2319.33C11224.3,2318.75 11225,2318.3 11225.8,2317.99C11227.3,2317.43 11228.8,2317.04 11230.1,2316.84C11231.4,2316.63 11232.6,2316.53 11233.6,2316.53C11236.3,2316.53 11238.4,2316.91 11240.1,2317.66C11241.8,2318.42 11243.1,2319.57 11244,2321.13C11244.8,2322.69 11245.2,2324.68 11245.2,2327.1L11245.2,2336.81C11245.2,2338.21 11244.9,2339.28 11244.2,2340.03C11243.6,2340.77 11242.6,2341.14 11241.3,2341.14C11240,2341.14 11239,2340.77 11238.3,2340.03C11237.6,2339.28 11237.3,2338.21 11237.3,2336.81L11237.3,2335.58L11237.6,2336.22C11237.4,2337.24 11237.1,2338.12 11236.5,2338.87C11235.9,2339.61 11235.1,2340.19 11234.2,2340.61C11233.3,2341.03 11232.2,2341.24 11231,2341.24Z" style="fill-opacity:0.9;fill-rule:nonzero;"/>
                <path d="M11251.7,2349.78C11250.4,2349.78 11249.3,2349.41 11248.6,2348.68C11247.9,2347.94 11247.5,2346.87 11247.5,2345.47L11247.5,2320.94C11247.5,2319.54 11247.8,2318.47 11248.6,2317.73C11249.3,2316.99 11250.3,2316.62 11251.7,2316.62C11253,2316.62 11254.1,2316.99 11254.8,2317.73C11255.5,2318.47 11255.9,2319.54 11255.9,2320.94L11255.9,2323.7L11255.4,2321.34C11255.8,2319.91 11256.8,2318.75 11258.2,2317.86C11259.6,2316.97 11261.3,2316.53 11263.1,2316.53C11265.1,2316.53 11266.9,2317.03 11268.4,2318.02C11270,2319.01 11271.2,2320.43 11272.1,2322.26C11273,2324.1 11273.4,2326.31 11273.4,2328.87C11273.4,2331.41 11273,2333.61 11272.1,2335.47C11271.2,2337.33 11270,2338.76 11268.5,2339.75C11266.9,2340.74 11265.1,2341.24 11263.1,2341.24C11261.3,2341.24 11259.7,2340.82 11258.3,2339.97C11256.9,2339.13 11255.9,2338.05 11255.5,2336.72L11256,2336.72L11256,2345.47C11256,2346.87 11255.7,2347.94 11254.9,2348.68C11254.2,2349.41 11253.1,2349.78 11251.7,2349.78ZM11260.4,2334.93C11261.2,2334.93 11262,2334.72 11262.7,2334.3C11263.3,2333.87 11263.8,2333.22 11264.2,2332.33C11264.6,2331.43 11264.8,2330.28 11264.8,2328.87C11264.8,2326.74 11264.4,2325.2 11263.6,2324.26C11262.7,2323.31 11261.7,2322.84 11260.4,2322.84C11259.5,2322.84 11258.7,2323.05 11258.1,2323.46C11257.4,2323.88 11256.9,2324.53 11256.5,2325.41C11256.1,2326.29 11255.9,2327.44 11255.9,2328.87C11255.9,2330.99 11256.3,2332.53 11257.2,2333.49C11258,2334.45 11259.1,2334.93 11260.4,2334.93Z" style="fill-opacity:0.9;fill-rule:nonzero;"/>
                <path d="M11279,2349.78C11277.6,2349.78 11276.6,2349.41 11275.9,2348.68C11275.1,2347.94 11274.7,2346.87 11274.7,2345.47L11274.7,2320.94C11274.7,2319.54 11275.1,2318.47 11275.8,2317.73C11276.6,2316.99 11277.6,2316.62 11278.9,2316.62C11280.3,2316.62 11281.4,2316.99 11282.1,2317.73C11282.8,2318.47 11283.2,2319.54 11283.2,2320.94L11283.2,2323.7L11282.6,2321.34C11283.1,2319.91 11284,2318.75 11285.5,2317.86C11286.9,2316.97 11288.5,2316.53 11290.3,2316.53C11292.4,2316.53 11294.2,2317.03 11295.7,2318.02C11297.3,2319.01 11298.5,2320.43 11299.3,2322.26C11300.2,2324.1 11300.7,2326.31 11300.7,2328.87C11300.7,2331.41 11300.2,2333.61 11299.3,2335.47C11298.5,2337.33 11297.3,2338.76 11295.7,2339.75C11294.2,2340.74 11292.4,2341.24 11290.3,2341.24C11288.6,2341.24 11287,2340.82 11285.6,2339.97C11284.2,2339.13 11283.2,2338.05 11282.7,2336.72L11283.3,2336.72L11283.3,2345.47C11283.3,2346.87 11282.9,2347.94 11282.2,2348.68C11281.4,2349.41 11280.4,2349.78 11279,2349.78ZM11287.6,2334.93C11288.5,2334.93 11289.3,2334.72 11289.9,2334.3C11290.6,2333.87 11291.1,2333.22 11291.5,2332.33C11291.9,2331.43 11292.1,2330.28 11292.1,2328.87C11292.1,2326.74 11291.7,2325.2 11290.8,2324.26C11290,2323.31 11288.9,2322.84 11287.6,2322.84C11286.8,2322.84 11286,2323.05 11285.3,2323.46C11284.7,2323.88 11284.1,2324.53 11283.7,2325.41C11283.4,2326.29 11283.2,2327.44 11283.2,2328.87C11283.2,2330.99 11283.6,2332.53 11284.4,2333.49C11285.2,2334.45 11286.3,2334.93 11287.6,2334.93Z" style="fill-opacity:0.9;fill-rule:nonzero;"/>
                <path d="M11314,2341.24C11311.4,2341.24 11309.1,2340.74 11307.1,2339.75C11305.2,2338.76 11303.6,2337.33 11302.6,2335.47C11301.5,2333.61 11300.9,2331.41 11300.9,2328.87C11300.9,2326.97 11301.2,2325.25 11301.8,2323.73C11302.5,2322.22 11303.3,2320.91 11304.5,2319.83C11305.6,2318.75 11307,2317.93 11308.6,2317.37C11310.2,2316.81 11312,2316.53 11314,2316.53C11316.6,2316.53 11318.9,2317.03 11320.8,2318.02C11322.8,2319.01 11324.3,2320.43 11325.4,2322.27C11326.5,2324.12 11327,2326.32 11327,2328.87C11327,2330.78 11326.7,2332.5 11326.1,2334.02C11325.5,2335.55 11324.6,2336.85 11323.5,2337.93C11322.3,2339.02 11320.9,2339.84 11319.3,2340.4C11317.7,2340.96 11315.9,2341.24 11314,2341.24ZM11314,2334.93C11314.9,2334.93 11315.6,2334.72 11316.3,2334.3C11316.9,2333.87 11317.5,2333.22 11317.8,2332.33C11318.2,2331.43 11318.4,2330.28 11318.4,2328.87C11318.4,2326.74 11318,2325.2 11317.2,2324.26C11316.3,2323.31 11315.3,2322.84 11314,2322.84C11313.1,2322.84 11312.4,2323.05 11311.7,2323.46C11311,2323.88 11310.5,2324.53 11310.1,2325.41C11309.7,2326.29 11309.5,2327.44 11309.5,2328.87C11309.5,2330.99 11309.9,2332.53 11310.8,2333.49C11311.6,2334.45 11312.7,2334.93 11314,2334.93Z" style="fill-opacity:0.9;fill-rule:nonzero;"/>
                <path d="M11339.9,2341.24C11337.3,2341.24 11335,2340.74 11333,2339.74C11331,2338.74 11329.5,2337.31 11328.4,2335.45C11327.3,2333.58 11326.8,2331.38 11326.8,2328.84C11326.8,2326.93 11327.1,2325.22 11327.7,2323.7C11328.3,2322.18 11329.2,2320.89 11330.3,2319.82C11331.5,2318.74 11332.9,2317.93 11334.5,2317.37C11336.1,2316.81 11337.9,2316.53 11339.9,2316.53C11340.8,2316.53 11341.8,2316.62 11342.8,2316.81C11343.9,2316.99 11344.9,2317.32 11346,2317.79C11346.8,2318.09 11347.3,2318.53 11347.6,2319.12C11347.9,2319.72 11348,2320.35 11348,2321.01C11348,2321.68 11347.8,2322.29 11347.4,2322.83C11347.1,2323.37 11346.6,2323.74 11346,2323.94C11345.5,2324.14 11344.8,2324.07 11344,2323.72C11343.5,2323.47 11343,2323.28 11342.4,2323.15C11341.9,2323.03 11341.3,2322.96 11340.8,2322.96C11340,2322.96 11339.2,2323.1 11338.5,2323.36C11337.9,2323.62 11337.3,2324.01 11336.9,2324.51C11336.4,2325.01 11336.1,2325.62 11335.9,2326.35C11335.6,2327.07 11335.5,2327.91 11335.5,2328.86C11335.5,2330.71 11336,2332.17 11336.9,2333.22C11337.8,2334.28 11339.1,2334.8 11340.8,2334.8C11341.3,2334.8 11341.8,2334.75 11342.4,2334.64C11343,2334.53 11343.5,2334.34 11344,2334.06C11344.8,2333.71 11345.4,2333.64 11346,2333.85C11346.6,2334.06 11347.1,2334.43 11347.4,2334.97C11347.7,2335.51 11347.9,2336.12 11348,2336.79C11348,2337.46 11347.8,2338.09 11347.5,2338.68C11347.2,2339.27 11346.7,2339.71 11345.9,2339.99C11344.9,2340.45 11343.8,2340.77 11342.8,2340.96C11341.8,2341.14 11340.8,2341.24 11339.9,2341.24Z" style="fill-opacity:0.9;fill-rule:nonzero;"/>
                <path d="M11357.7,2341.24C11355.8,2341.24 11354.2,2340.9 11352.8,2340.22C11351.4,2339.55 11350.3,2338.62 11349.6,2337.45C11348.8,2336.28 11348.4,2334.95 11348.4,2333.46C11348.4,2331.73 11348.8,2330.37 11349.7,2329.37C11350.6,2328.37 11352.1,2327.66 11354.1,2327.22C11356.1,2326.78 11358.7,2326.56 11362,2326.56L11364.6,2326.56L11364.6,2330.6L11362,2330.6C11360.7,2330.6 11359.7,2330.69 11358.9,2330.87C11358.1,2331.05 11357.5,2331.33 11357.1,2331.69C11356.7,2332.05 11356.5,2332.52 11356.5,2333.11C11356.5,2333.86 11356.8,2334.47 11357.3,2334.95C11357.8,2335.43 11358.6,2335.67 11359.6,2335.67C11360.4,2335.67 11361.1,2335.49 11361.7,2335.14C11362.3,2334.79 11362.8,2334.3 11363.2,2333.67C11363.6,2333.04 11363.8,2332.31 11363.8,2331.47L11363.8,2325.92C11363.8,2324.75 11363.5,2323.93 11362.9,2323.46C11362.3,2322.99 11361.3,2322.76 11359.9,2322.76C11359.1,2322.76 11358.2,2322.84 11357.3,2323.02C11356.3,2323.19 11355.3,2323.5 11354.1,2323.94C11353.2,2324.25 11352.5,2324.29 11351.9,2324.07C11351.2,2323.85 11350.8,2323.48 11350.4,2322.94C11350.1,2322.41 11349.9,2321.82 11350,2321.18C11350,2320.53 11350.2,2319.92 11350.6,2319.33C11351,2318.75 11351.6,2318.3 11352.5,2317.99C11354,2317.43 11355.4,2317.04 11356.7,2316.84C11358,2316.63 11359.2,2316.53 11360.3,2316.53C11362.9,2316.53 11365.1,2316.91 11366.8,2317.66C11368.5,2318.42 11369.7,2319.57 11370.6,2321.13C11371.4,2322.69 11371.9,2324.68 11371.9,2327.1L11371.9,2336.81C11371.9,2338.21 11371.5,2339.28 11370.9,2340.03C11370.2,2340.77 11369.2,2341.14 11367.9,2341.14C11366.6,2341.14 11365.6,2340.77 11365,2340.03C11364.3,2339.28 11363.9,2338.21 11363.9,2336.81L11363.9,2335.58L11364.2,2336.22C11364,2337.24 11363.7,2338.12 11363.1,2338.87C11362.5,2339.61 11361.8,2340.19 11360.8,2340.61C11359.9,2341.03 11358.9,2341.24 11357.7,2341.24Z" style="fill-opacity:0.9;fill-rule:nonzero;"/>
                <path d="M11383.3,2341.24C11381.3,2341.24 11379.6,2340.74 11378,2339.75C11376.4,2338.76 11375.2,2337.33 11374.3,2335.47C11373.5,2333.61 11373,2331.41 11373,2328.87C11373,2326.31 11373.5,2324.1 11374.3,2322.26C11375.2,2320.43 11376.4,2319.01 11378,2318.02C11379.5,2317.03 11381.3,2316.53 11383.3,2316.53C11385.1,2316.53 11386.7,2316.95 11388.1,2317.79C11389.5,2318.62 11390.5,2319.7 11391,2321.03L11390.4,2321.03L11390.4,2310.72C11390.4,2309.32 11390.8,2308.25 11391.5,2307.51C11392.2,2306.78 11393.3,2306.41 11394.7,2306.41C11396,2306.41 11397.1,2306.78 11397.8,2307.51C11398.6,2308.25 11398.9,2309.32 11398.9,2310.72L11398.9,2336.81C11398.9,2338.21 11398.6,2339.28 11397.9,2340.03C11397.1,2340.77 11396.1,2341.14 11394.7,2341.14C11393.4,2341.14 11392.3,2340.77 11391.6,2340.03C11390.9,2339.28 11390.5,2338.21 11390.5,2336.81L11390.5,2334.05L11391,2336.41C11390.6,2337.85 11389.7,2339.01 11388.2,2339.9C11386.8,2340.79 11385.2,2341.24 11383.3,2341.24ZM11386.1,2334.93C11386.9,2334.93 11387.7,2334.72 11388.4,2334.3C11389,2333.87 11389.6,2333.22 11389.9,2332.33C11390.3,2331.43 11390.5,2330.28 11390.5,2328.87C11390.5,2326.74 11390.1,2325.2 11389.3,2324.26C11388.4,2323.31 11387.4,2322.84 11386.1,2322.84C11385.2,2322.84 11384.4,2323.05 11383.8,2323.46C11383.1,2323.88 11382.6,2324.53 11382.2,2325.41C11381.8,2326.29 11381.6,2327.44 11381.6,2328.87C11381.6,2330.99 11382,2332.53 11382.9,2333.49C11383.7,2334.45 11384.8,2334.93 11386.1,2334.93Z" style="fill-opacity:0.9;fill-rule:nonzero;"/>
                <path d="M11413.3,2341.24C11410.7,2341.24 11408.4,2340.74 11406.5,2339.75C11404.5,2338.76 11403,2337.33 11401.9,2335.47C11400.8,2333.61 11400.3,2331.41 11400.3,2328.87C11400.3,2326.97 11400.6,2325.25 11401.2,2323.73C11401.8,2322.22 11402.7,2320.91 11403.8,2319.83C11405,2318.75 11406.4,2317.93 11408,2317.37C11409.6,2316.81 11411.4,2316.53 11413.3,2316.53C11416,2316.53 11418.3,2317.03 11420.2,2318.02C11422.2,2319.01 11423.7,2320.43 11424.8,2322.27C11425.8,2324.12 11426.4,2326.32 11426.4,2328.87C11426.4,2330.78 11426.1,2332.5 11425.5,2334.02C11424.8,2335.55 11424,2336.85 11422.8,2337.93C11421.7,2339.02 11420.3,2339.84 11418.7,2340.4C11417.1,2340.96 11415.3,2341.24 11413.3,2341.24ZM11413.3,2334.93C11414.2,2334.93 11415,2334.72 11415.6,2334.3C11416.3,2333.87 11416.8,2333.22 11417.2,2332.33C11417.6,2331.43 11417.8,2330.28 11417.8,2328.87C11417.8,2326.74 11417.4,2325.2 11416.5,2324.26C11415.7,2323.31 11414.6,2322.84 11413.3,2322.84C11412.5,2322.84 11411.7,2323.05 11411,2323.46C11410.4,2323.88 11409.8,2324.53 11409.5,2325.41C11409.1,2326.29 11408.9,2327.44 11408.9,2328.87C11408.9,2330.99 11409.3,2332.53 11410.1,2333.49C11411,2334.45 11412,2334.93 11413.3,2334.93Z" style="fill-opacity:0.9;fill-rule:nonzero;"/>
                <path d="M11436.6,2341.24C11435.2,2341.24 11433.8,2341.13 11432.3,2340.91C11430.9,2340.7 11429.6,2340.33 11428.4,2339.81C11427.6,2339.49 11427,2339.05 11426.7,2338.5C11426.3,2337.94 11426.2,2337.36 11426.2,2336.76C11426.2,2336.15 11426.4,2335.6 11426.7,2335.11C11427,2334.61 11427.5,2334.26 11428,2334.05C11428.6,2333.85 11429.3,2333.87 11430,2334.12C11431.3,2334.61 11432.5,2334.96 11433.6,2335.17C11434.6,2335.38 11435.7,2335.48 11436.7,2335.48C11437.9,2335.48 11438.7,2335.31 11439.2,2334.96C11439.7,2334.62 11440,2334.18 11440,2333.64C11440,2333.15 11439.8,2332.78 11439.5,2332.54C11439.1,2332.29 11438.7,2332.12 11438.1,2332.03L11432.7,2331.15C11430.8,2330.81 11429.2,2330.08 11428.1,2328.97C11427,2327.85 11426.5,2326.4 11426.5,2324.6C11426.5,2322.94 11427,2321.51 11427.9,2320.31C11428.8,2319.11 11430.1,2318.18 11431.8,2317.52C11433.5,2316.86 11435.4,2316.53 11437.5,2316.53C11438.9,2316.53 11440.3,2316.64 11441.4,2316.86C11442.6,2317.09 11443.8,2317.45 11444.9,2317.97C11445.6,2318.27 11446.1,2318.69 11446.4,2319.23C11446.7,2319.76 11446.8,2320.34 11446.7,2320.94C11446.6,2321.55 11446.4,2322.1 11446.1,2322.58C11445.8,2323.07 11445.3,2323.41 11444.7,2323.59C11444.1,2323.77 11443.5,2323.73 11442.7,2323.45C11441.7,2323.04 11440.7,2322.74 11439.9,2322.56C11439.1,2322.38 11438.3,2322.29 11437.6,2322.29C11436.3,2322.29 11435.4,2322.46 11434.8,2322.81C11434.3,2323.16 11434,2323.61 11434,2324.16C11434,2324.54 11434.2,2324.88 11434.5,2325.16C11434.8,2325.45 11435.2,2325.64 11435.8,2325.74L11441.1,2326.62C11443.2,2326.96 11444.8,2327.67 11445.9,2328.73C11447,2329.8 11447.5,2331.24 11447.5,2333.08C11447.5,2335.66 11446.5,2337.66 11444.6,2339.09C11442.6,2340.52 11439.9,2341.24 11436.6,2341.24Z" style="fill-opacity:0.9;fill-rule:nonzero;"/>
            </g>
        </g>
    </g>
</svg>
