<?xml version="1.0" encoding="UTF-8" standalone="no"?>
<!DOCTYPE svg PUBLIC "-//W3C//DTD SVG 1.1//EN" "http://www.w3.org/Graphics/SVG/1.1/DTD/svg11.dtd">
<svg width="100%" height="100%" viewBox="0 0 160 190" version="1.1" xmlns="http://www.w3.org/2000/svg" xmlns:xlink="http://www.w3.org/1999/xlink" xml:space="preserve" xmlns:serif="http://www.serif.com/" style="fill-rule:evenodd;clip-rule:evenodd;stroke-linejoin:round;stroke-miterlimit:2;">
    <path d="M157.134,96.503C153.314,76.183 141.794,58.563 124.714,46.903C107.644,35.233 87.024,30.913 66.724,34.743C59.064,36.183 51.794,38.723 45.074,42.233L3.714,0.003L3.714,108.003C3.664,109.583 3.674,111.173 3.714,112.763L3.714,113.843L3.754,113.843C3.904,117.603 4.244,121.383 4.954,125.143C8.774,145.463 20.294,163.083 37.364,174.743C50.384,183.643 65.444,188.263 80.884,188.263C85.694,188.263 90.534,187.813 95.364,186.903C115.684,183.083 133.304,171.573 144.964,154.493C156.634,137.433 160.954,116.833 157.134,96.503ZM81.044,147.623C60.724,147.623 44.244,131.153 44.244,110.823C44.244,107.643 44.684,104.583 45.444,101.643L31.764,91.823L29.934,94.373L24.414,90.403L39.084,69.973L44.604,73.943L42.484,76.893L54.424,85.463C61.124,78.433 70.554,74.033 81.034,74.033C101.354,74.033 117.834,90.503 117.834,110.833C117.834,131.153 101.364,147.623 81.044,147.623ZM52.084,109.723L68.744,100.023L68.744,105.803L58.204,111.923L68.744,118.043L68.744,123.823L52.084,114.123L52.084,109.723ZM87.554,94.663L91.624,96.973L73.914,128.403L69.864,126.023L87.554,94.663ZM92.394,100.023L109.054,109.723L109.054,114.133L92.394,123.833L92.394,118.053L102.934,111.933L92.394,105.813L92.394,100.023Z" style="fill:rgb(5,24,33);"/>
</svg>
