<?xml version="1.0" encoding="UTF-8" standalone="no"?>
<!DOCTYPE svg PUBLIC "-//W3C//DTD SVG 1.1//EN" "http://www.w3.org/Graphics/SVG/1.1/DTD/svg11.dtd">
<svg width="100%" height="100%" viewBox="0 0 101 101" version="1.1" xmlns="http://www.w3.org/2000/svg" xmlns:xlink="http://www.w3.org/1999/xlink" xml:space="preserve" xmlns:serif="http://www.serif.com/" style="fill-rule:evenodd;clip-rule:evenodd;stroke-linejoin:round;stroke-miterlimit:2;">
    <g transform="matrix(1,0,0,1,-11019,-1966)">
        <g id="logo-rio" transform="matrix(0.25,0,0,0.625,8975.94,-1041.85)">
            <rect x="8176.21" y="4814.05" width="400" height="160" style="fill:none;"/>
            <clipPath id="_clip1">
                <rect x="8176.21" y="4814.05" width="400" height="160"/>
            </clipPath>
            <g clip-path="url(#_clip1)">
                <g transform="matrix(4,0,0,1.6,8176.21,4814.05)">
                    <path d="M100,0L0,0L0,100L100,100L100,0ZM27.4,34.4C32.8,34.4 37.2,38.8 37.2,44.2C37.2,47.2 35.8,50 33.6,51.8C33,52.4 32.2,52.9 31.3,53.2L39.5,65.7L28.8,65.7L20.3,53.2L20.3,65.7L10.5,65.7L10.5,34.4M53.5,65.7L43.4,65.7L43.4,34.4L53.5,34.4L53.5,65.7ZM90.6,50.1C90.6,59.2 83.2,66.6 74.1,66.6C65,66.6 57.6,59.2 57.6,50.1C57.6,41 65,33.6 74.1,33.6C83.2,33.6 90.6,41 90.6,50.1Z"/>
                </g>
            </g>
        </g>
    </g>
</svg>
