<?xml version="1.0" encoding="UTF-8" standalone="no"?>
<!DOCTYPE svg PUBLIC "-//W3C//DTD SVG 1.1//EN" "http://www.w3.org/Graphics/SVG/1.1/DTD/svg11.dtd">
<svg width="100%" height="100%" viewBox="0 0 61 61" version="1.1" xmlns="http://www.w3.org/2000/svg" xmlns:xlink="http://www.w3.org/1999/xlink" xml:space="preserve" xmlns:serif="http://www.serif.com/" style="fill-rule:evenodd;clip-rule:evenodd;stroke-linejoin:round;stroke-miterlimit:2;">
    <g transform="matrix(1,0,0,1,-7837,-5609)">
        <g transform="matrix(0.981081,0,0,1.17049,129.143,-1014.67)">
            <rect id="quote" x="7856.58" y="5659.18" width="61.157" height="51.261" style="fill:none;"/>
            <clipPath id="_clip1">
                <rect id="quote1" serif:id="quote" x="7856.58" y="5659.18" width="61.157" height="51.261"/>
            </clipPath>
            <g clip-path="url(#_clip1)">
                <g transform="matrix(1,0,0,0.838181,7332.85,3878.53)">
                    <g id="icon-quote">
                        <path id="icon-quote1" serif:id="icon-quote" d="M535.33,2129.38C544.108,2129.2 549.821,2136.76 550.286,2144.77C550.558,2149.46 551.29,2156.21 545.189,2166.41C541.038,2173.35 533.284,2179.61 523.725,2180.63L523.725,2171.9C537.88,2168.79 537.188,2152.52 537.188,2152.52C529.44,2152.98 524.484,2147.36 524.484,2140.95C524.484,2134.55 529.545,2129.49 535.33,2129.38ZM569.748,2129.38C578.526,2129.2 584.239,2136.76 584.704,2144.77C584.976,2149.46 585.709,2156.21 579.607,2166.41C575.456,2173.35 567.702,2179.61 558.143,2180.63L558.143,2171.9C572.299,2168.79 571.606,2152.52 571.606,2152.52C563.859,2152.98 558.902,2147.36 558.902,2140.95C558.902,2134.55 563.964,2129.49 569.748,2129.38Z" style="fill:white;fill-opacity:0.1;"/>
                    </g>
                </g>
            </g>
        </g>
    </g>
</svg>
